<svg xmlns="http://www.w3.org/2000/svg" xmlns:xlink="http://www.w3.org/1999/xlink" width="1001" zoomAndPan="magnify" viewBox="0 0 750.75 383.999986" height="512" preserveAspectRatio="xMidYMid meet" version="1.0"><defs><g/><clipPath id="016fa51a8a"><rect x="0" width="507" y="0" height="182"/></clipPath><clipPath id="f0d2a32911"><path d="M 1 14 L 59 14 L 59 80.941406 L 1 80.941406 Z M 1 14 " clip-rule="nonzero"/></clipPath><clipPath id="dc2d92ee61"><path d="M 33 0.328125 L 71 0.328125 L 71 64 L 33 64 Z M 33 0.328125 " clip-rule="nonzero"/></clipPath><clipPath id="73f88614d7"><rect x="0" width="108" y="0" height="81"/></clipPath><clipPath id="812fab065f"><path d="M 4 17 L 76 17 L 76 104.953125 L 4 104.953125 Z M 4 17 " clip-rule="nonzero"/></clipPath><clipPath id="1bb3dfa01a"><rect x="0" width="160" y="0" height="105"/></clipPath></defs><g fill="#000000" fill-opacity="1"><g transform="translate(124.513793, 182.33885)"><g><path d="M 52.3125 -100.453125 C 58.34375 -100.453125 63.210938 -99.546875 66.921875 -97.734375 C 70.628906 -95.921875 74.109375 -93.8125 77.359375 -91.40625 C 78.554688 -90.476562 79.484375 -90.015625 80.140625 -90.015625 C 81.898438 -90.015625 83.054688 -92.84375 83.609375 -98.5 L 86.8125 -98.5 C 86.625 -95.070312 86.484375 -90.898438 86.390625 -85.984375 C 86.296875 -81.066406 86.25 -74.570312 86.25 -66.5 L 83.0625 -66.5 C 82.40625 -70.394531 81.613281 -74.148438 80.6875 -77.765625 C 79.757812 -81.390625 78.226562 -84.5 76.09375 -87.09375 C 73.40625 -90.519531 69.878906 -93.179688 65.515625 -95.078125 C 61.160156 -96.984375 56.664062 -97.9375 52.03125 -97.9375 C 47.394531 -97.9375 43.195312 -96.800781 39.4375 -94.53125 C 35.6875 -92.257812 32.460938 -88.988281 29.765625 -84.71875 C 27.078125 -80.457031 25.015625 -75.332031 23.578125 -69.34375 C 22.140625 -63.363281 21.421875 -56.617188 21.421875 -49.109375 C 21.421875 -32.410156 24.109375 -20.1875 29.484375 -12.4375 C 34.867188 -4.695312 43.21875 -0.828125 54.53125 -0.828125 C 57.875 -0.828125 60.773438 -1.3125 63.234375 -2.28125 C 65.691406 -3.257812 67.613281 -4.210938 69 -5.140625 C 70.769531 -6.347656 71.882812 -7.484375 72.34375 -8.546875 C 72.8125 -9.617188 73.046875 -11.035156 73.046875 -12.796875 L 73.046875 -26.15625 C 73.046875 -29.957031 72.671875 -32.785156 71.921875 -34.640625 C 71.179688 -36.492188 69.8125 -37.742188 67.8125 -38.390625 C 65.820312 -39.046875 62.878906 -39.421875 58.984375 -39.515625 L 58.984375 -42.296875 C 60.660156 -42.203125 62.609375 -42.128906 64.828125 -42.078125 C 67.054688 -42.035156 69.398438 -41.988281 71.859375 -41.9375 C 74.316406 -41.894531 76.566406 -41.875 78.609375 -41.875 C 81.671875 -41.875 84.429688 -41.921875 86.890625 -42.015625 C 89.347656 -42.109375 91.410156 -42.203125 93.078125 -42.296875 L 93.078125 -39.515625 C 91.035156 -39.421875 89.503906 -39.09375 88.484375 -38.53125 C 87.460938 -37.976562 86.789062 -36.863281 86.46875 -35.1875 C 86.144531 -33.519531 85.984375 -30.972656 85.984375 -27.546875 L 85.984375 0 L 83.203125 0 C 83.109375 -1.570312 82.757812 -3.285156 82.15625 -5.140625 C 81.550781 -7.003906 80.644531 -7.9375 79.4375 -7.9375 C 78.882812 -7.9375 78.328125 -7.796875 77.765625 -7.515625 C 77.210938 -7.234375 76.238281 -6.582031 74.84375 -5.5625 C 71.789062 -3.25 68.546875 -1.414062 65.109375 -0.0625 C 61.679688 1.28125 57.691406 1.953125 53.140625 1.953125 C 43.585938 1.953125 35.398438 -0.015625 28.578125 -3.953125 C 21.765625 -7.898438 16.550781 -13.582031 12.9375 -21 C 9.320312 -28.425781 7.515625 -37.285156 7.515625 -47.578125 C 7.515625 -58.429688 9.460938 -67.800781 13.359375 -75.6875 C 17.253906 -83.570312 22.5625 -89.671875 29.28125 -93.984375 C 36.007812 -98.296875 43.6875 -100.453125 52.3125 -100.453125 Z M 52.3125 -100.453125 "/></g></g></g><g fill="#000000" fill-opacity="1"><g transform="translate(219.814737, 182.33885)"><g><path d="M 5.84375 -98.5 C 7.789062 -98.40625 10.335938 -98.3125 13.484375 -98.21875 C 16.640625 -98.125 19.75 -98.078125 22.8125 -98.078125 C 27.175781 -98.078125 31.347656 -98.125 35.328125 -98.21875 C 39.316406 -98.3125 42.148438 -98.359375 43.828125 -98.359375 C 51.335938 -98.359375 57.570312 -97.289062 62.53125 -95.15625 C 67.5 -93.03125 71.210938 -90.132812 73.671875 -86.46875 C 76.128906 -82.800781 77.359375 -78.695312 77.359375 -74.15625 C 77.359375 -71.375 76.800781 -68.40625 75.6875 -65.25 C 74.570312 -62.09375 72.644531 -59.125 69.90625 -56.34375 C 67.175781 -53.5625 63.441406 -51.265625 58.703125 -49.453125 C 53.972656 -47.648438 47.992188 -46.75 40.765625 -46.75 L 27.40625 -46.75 L 27.40625 -49.53125 L 39.375 -49.53125 C 45.957031 -49.53125 50.988281 -50.570312 54.46875 -52.65625 C 57.945312 -54.75 60.3125 -57.53125 61.5625 -61 C 62.8125 -64.476562 63.4375 -68.351562 63.4375 -72.625 C 63.4375 -79.945312 61.695312 -85.625 58.21875 -89.65625 C 54.738281 -93.695312 48.78125 -95.71875 40.34375 -95.71875 C 36.082031 -95.71875 33.300781 -94.925781 32 -93.34375 C 30.695312 -91.769531 30.046875 -88.570312 30.046875 -83.75 L 30.046875 -14.75 C 30.046875 -11.40625 30.320312 -8.898438 30.875 -7.234375 C 31.4375 -5.566406 32.53125 -4.453125 34.15625 -3.890625 C 35.78125 -3.335938 38.164062 -2.96875 41.3125 -2.78125 L 41.3125 0 C 39.1875 -0.1875 36.519531 -0.300781 33.3125 -0.34375 C 30.113281 -0.394531 26.894531 -0.421875 23.65625 -0.421875 C 20.03125 -0.421875 16.640625 -0.394531 13.484375 -0.34375 C 10.335938 -0.300781 7.789062 -0.1875 5.84375 0 L 5.84375 -2.78125 C 9 -2.96875 11.382812 -3.335938 13 -3.890625 C 14.625 -4.453125 15.710938 -5.566406 16.265625 -7.234375 C 16.828125 -8.898438 17.109375 -11.40625 17.109375 -14.75 L 17.109375 -83.75 C 17.109375 -87.1875 16.828125 -89.710938 16.265625 -91.328125 C 15.710938 -92.953125 14.625 -94.066406 13 -94.671875 C 11.382812 -95.273438 9 -95.625 5.84375 -95.71875 Z M 27.96875 -49.109375 C 32.976562 -48.921875 36.921875 -48.710938 39.796875 -48.484375 C 42.671875 -48.253906 45.007812 -48.046875 46.8125 -47.859375 C 48.625 -47.671875 50.363281 -47.4375 52.03125 -47.15625 C 58.25 -46.144531 62.722656 -44.269531 65.453125 -41.53125 C 68.191406 -38.789062 70.210938 -34.546875 71.515625 -28.796875 L 74.984375 -14.609375 C 75.910156 -10.523438 76.859375 -7.578125 77.828125 -5.765625 C 78.804688 -3.960938 80.316406 -3.109375 82.359375 -3.203125 C 83.941406 -3.296875 85.265625 -3.804688 86.328125 -4.734375 C 87.390625 -5.660156 88.523438 -6.910156 89.734375 -8.484375 L 91.828125 -6.953125 C 89.878906 -4.078125 87.859375 -1.875 85.765625 -0.34375 C 83.679688 1.1875 80.738281 1.953125 76.9375 1.953125 C 73.5 1.953125 70.484375 0.929688 67.890625 -1.109375 C 65.296875 -3.148438 63.347656 -7.140625 62.046875 -13.078125 L 58.984375 -26.984375 C 58.148438 -30.972656 57.195312 -34.425781 56.125 -37.34375 C 55.0625 -40.269531 53.578125 -42.566406 51.671875 -44.234375 C 49.773438 -45.910156 46.972656 -46.75 43.265625 -46.75 L 28.25 -46.75 Z M 27.96875 -49.109375 "/></g></g></g><g fill="#000000" fill-opacity="1"><g transform="translate(307.463769, 182.33885)"><g><path d="M 51.609375 -100.453125 C 60.421875 -100.453125 68.144531 -98.457031 74.78125 -94.46875 C 81.414062 -90.476562 86.5625 -84.75 90.21875 -77.28125 C 93.882812 -69.8125 95.71875 -60.742188 95.71875 -50.078125 C 95.71875 -39.691406 93.835938 -30.601562 90.078125 -22.8125 C 86.328125 -15.019531 81.113281 -8.941406 74.4375 -4.578125 C 67.757812 -0.222656 60.101562 1.953125 51.46875 1.953125 C 42.664062 1.953125 34.945312 -0.0390625 28.3125 -4.03125 C 21.675781 -8.019531 16.523438 -13.769531 12.859375 -21.28125 C 9.203125 -28.800781 7.375 -37.847656 7.375 -48.421875 C 7.375 -58.804688 9.273438 -67.894531 13.078125 -75.6875 C 16.878906 -83.476562 22.09375 -89.550781 28.71875 -93.90625 C 35.351562 -98.269531 42.984375 -100.453125 51.609375 -100.453125 Z M 51.0625 -97.9375 C 45.03125 -97.9375 39.785156 -95.847656 35.328125 -91.671875 C 30.878906 -87.503906 27.425781 -81.753906 24.96875 -74.421875 C 22.507812 -67.097656 21.28125 -58.613281 21.28125 -48.96875 C 21.28125 -39.132812 22.648438 -30.578125 25.390625 -23.296875 C 28.128906 -16.015625 31.835938 -10.40625 36.515625 -6.46875 C 41.203125 -2.53125 46.375 -0.5625 52.03125 -0.5625 C 58.0625 -0.5625 63.300781 -2.644531 67.75 -6.8125 C 72.207031 -10.988281 75.664062 -16.765625 78.125 -24.140625 C 80.582031 -31.515625 81.8125 -39.976562 81.8125 -49.53125 C 81.8125 -59.457031 80.441406 -68.035156 77.703125 -75.265625 C 74.960938 -82.503906 71.273438 -88.09375 66.640625 -92.03125 C 62.003906 -95.96875 56.8125 -97.9375 51.0625 -97.9375 Z M 51.0625 -97.9375 "/></g></g></g><g fill="#000000" fill-opacity="1"><g transform="translate(406.521038, 182.33885)"><g><path d="M 126.1875 -98.5 L 126.1875 -95.71875 C 124.425781 -95.34375 122.476562 -94.296875 120.34375 -92.578125 C 118.207031 -90.867188 116.492188 -87.878906 115.203125 -83.609375 L 88.90625 0.703125 C 88.71875 0.703125 88.53125 0.703125 88.34375 0.703125 C 88.15625 0.703125 87.96875 0.703125 87.78125 0.703125 C 87.601562 0.703125 87.421875 0.703125 87.234375 0.703125 C 87.046875 0.703125 86.859375 0.703125 86.671875 0.703125 L 57.1875 -86.8125 C 55.976562 -90.425781 54.628906 -92.789062 53.140625 -93.90625 C 51.660156 -95.019531 50.269531 -95.625 48.96875 -95.71875 L 48.96875 -98.5 C 50.632812 -98.40625 52.71875 -98.3125 55.21875 -98.21875 C 57.726562 -98.125 60.144531 -98.078125 62.46875 -98.078125 C 66.082031 -98.078125 69.46875 -98.125 72.625 -98.21875 C 75.78125 -98.3125 78.332031 -98.40625 80.28125 -98.5 L 80.28125 -95.71875 C 77.488281 -95.625 75.28125 -95.34375 73.65625 -94.875 C 72.039062 -94.414062 71.113281 -93.394531 70.875 -91.8125 C 70.644531 -90.238281 71.085938 -87.644531 72.203125 -84.03125 L 92.9375 -19.890625 L 90.984375 -18.21875 L 109.359375 -75.96875 C 111.023438 -81.0625 111.785156 -85.019531 111.640625 -87.84375 C 111.503906 -90.675781 110.460938 -92.671875 108.515625 -93.828125 C 106.566406 -94.992188 103.644531 -95.625 99.75 -95.71875 L 99.75 -98.5 C 102.4375 -98.40625 105.171875 -98.3125 107.953125 -98.21875 C 110.742188 -98.125 113.34375 -98.078125 115.75 -98.078125 C 118.164062 -98.078125 120.160156 -98.125 121.734375 -98.21875 C 123.304688 -98.3125 124.789062 -98.40625 126.1875 -98.5 Z M 28.9375 -98.5 L 28.9375 -95.71875 C 26.53125 -95.53125 24.789062 -95.066406 23.71875 -94.328125 C 22.65625 -93.585938 22.144531 -92.40625 22.1875 -90.78125 C 22.238281 -89.15625 22.726562 -86.90625 23.65625 -84.03125 L 45.21875 -18.21875 L 41.734375 -14.75 L 61.21875 -76.9375 L 63.296875 -73.59375 L 40.34375 0.703125 C 40.15625 0.703125 39.96875 0.703125 39.78125 0.703125 C 39.601562 0.703125 39.421875 0.703125 39.234375 0.703125 C 39.046875 0.703125 38.859375 0.703125 38.671875 0.703125 C 38.492188 0.703125 38.3125 0.703125 38.125 0.703125 L 8.625 -86.8125 C 7.414062 -90.425781 5.882812 -92.789062 4.03125 -93.90625 C 2.175781 -95.019531 0.507812 -95.625 -0.96875 -95.71875 L -0.96875 -98.5 C 0.882812 -98.40625 3.175781 -98.3125 5.90625 -98.21875 C 8.644531 -98.125 11.3125 -98.078125 13.90625 -98.078125 C 16.96875 -98.078125 19.820312 -98.125 22.46875 -98.21875 C 25.113281 -98.3125 27.269531 -98.40625 28.9375 -98.5 Z M 28.9375 -98.5 "/></g></g></g><g fill="#000000" fill-opacity="1"><g transform="translate(529.925343, 182.33885)"><g><path d="M 93.21875 -98.5 L 93.21875 -95.71875 C 90.0625 -95.625 87.671875 -95.160156 86.046875 -94.328125 C 84.421875 -93.492188 83.328125 -92.148438 82.765625 -90.296875 C 82.210938 -88.441406 81.9375 -85.796875 81.9375 -82.359375 L 81.9375 0.703125 C 81.382812 0.703125 80.851562 0.703125 80.34375 0.703125 C 79.832031 0.703125 79.300781 0.703125 78.75 0.703125 L 20.3125 -89.59375 L 20.3125 -16.140625 C 20.3125 -12.796875 20.613281 -10.171875 21.21875 -8.265625 C 21.820312 -6.367188 23.023438 -5.023438 24.828125 -4.234375 C 26.640625 -3.453125 29.351562 -2.96875 32.96875 -2.78125 L 32.96875 0 C 31.300781 -0.1875 29.125 -0.300781 26.4375 -0.34375 C 23.75 -0.394531 21.195312 -0.421875 18.78125 -0.421875 C 16.457031 -0.421875 14.113281 -0.394531 11.75 -0.34375 C 9.382812 -0.300781 7.414062 -0.1875 5.84375 0 L 5.84375 -2.78125 C 9 -2.96875 11.382812 -3.453125 13 -4.234375 C 14.625 -5.023438 15.710938 -6.367188 16.265625 -8.265625 C 16.828125 -10.171875 17.109375 -12.796875 17.109375 -16.140625 L 17.109375 -83.75 C 17.109375 -87.1875 16.828125 -89.710938 16.265625 -91.328125 C 15.710938 -92.953125 14.625 -94.066406 13 -94.671875 C 11.382812 -95.273438 9 -95.625 5.84375 -95.71875 L 5.84375 -98.5 C 7.414062 -98.40625 9.382812 -98.3125 11.75 -98.21875 C 14.113281 -98.125 16.457031 -98.078125 18.78125 -98.078125 C 20.820312 -98.078125 22.769531 -98.125 24.625 -98.21875 C 26.476562 -98.3125 28.148438 -98.40625 29.640625 -98.5 L 78.75 -22.8125 L 78.75 -82.359375 C 78.75 -85.796875 78.445312 -88.441406 77.84375 -90.296875 C 77.238281 -92.148438 76.03125 -93.492188 74.21875 -94.328125 C 72.414062 -95.160156 69.703125 -95.625 66.078125 -95.71875 L 66.078125 -98.5 C 67.753906 -98.40625 69.957031 -98.3125 72.6875 -98.21875 C 75.425781 -98.125 77.957031 -98.078125 80.28125 -98.078125 C 82.6875 -98.078125 85.070312 -98.125 87.4375 -98.21875 C 89.800781 -98.3125 91.726562 -98.40625 93.21875 -98.5 Z M 93.21875 -98.5 "/></g></g></g><g transform="matrix(1, 0, 0, 1, 74, 171)"><g clip-path="url(#016fa51a8a)"><g fill="#000000" fill-opacity="1"><g transform="translate(2.411354, 146.720934)"><g><path d="M 122.453125 -95.59375 L 122.453125 -92.890625 C 120.742188 -92.523438 118.851562 -91.507812 116.78125 -89.84375 C 114.71875 -88.1875 113.054688 -85.285156 111.796875 -81.140625 L 86.28125 0.671875 C 86.09375 0.671875 85.910156 0.671875 85.734375 0.671875 C 85.554688 0.671875 85.375 0.671875 85.1875 0.671875 C 85.007812 0.671875 84.832031 0.671875 84.65625 0.671875 C 84.476562 0.671875 84.296875 0.671875 84.109375 0.671875 L 55.484375 -84.25 C 54.316406 -87.757812 53.015625 -90.050781 51.578125 -91.125 C 50.140625 -92.207031 48.789062 -92.796875 47.53125 -92.890625 L 47.53125 -95.59375 C 49.144531 -95.5 51.164062 -95.40625 53.59375 -95.3125 C 56.03125 -95.226562 58.375 -95.1875 60.625 -95.1875 C 64.132812 -95.1875 67.414062 -95.226562 70.46875 -95.3125 C 73.53125 -95.40625 76.007812 -95.5 77.90625 -95.59375 L 77.90625 -92.890625 C 75.207031 -92.796875 73.066406 -92.523438 71.484375 -92.078125 C 69.910156 -91.628906 69.007812 -90.640625 68.78125 -89.109375 C 68.5625 -87.578125 68.992188 -85.054688 70.078125 -81.546875 L 90.1875 -19.3125 L 88.296875 -17.6875 L 106.125 -73.71875 C 107.738281 -78.664062 108.476562 -82.507812 108.34375 -85.25 C 108.207031 -88 107.195312 -89.9375 105.3125 -91.0625 C 103.425781 -92.1875 100.59375 -92.796875 96.8125 -92.890625 L 96.8125 -95.59375 C 99.414062 -95.5 102.066406 -95.40625 104.765625 -95.3125 C 107.472656 -95.226562 109.992188 -95.1875 112.328125 -95.1875 C 114.671875 -95.1875 116.609375 -95.226562 118.140625 -95.3125 C 119.671875 -95.40625 121.109375 -95.5 122.453125 -95.59375 Z M 28.078125 -95.59375 L 28.078125 -92.890625 C 25.742188 -92.710938 24.054688 -92.257812 23.015625 -91.53125 C 21.984375 -90.8125 21.488281 -89.664062 21.53125 -88.09375 C 21.582031 -86.519531 22.054688 -84.335938 22.953125 -81.546875 L 43.875 -17.6875 L 40.5 -14.3125 L 59.40625 -74.65625 L 61.4375 -71.421875 L 39.15625 0.671875 C 38.976562 0.671875 38.796875 0.671875 38.609375 0.671875 C 38.429688 0.671875 38.253906 0.671875 38.078125 0.671875 C 37.890625 0.671875 37.707031 0.671875 37.53125 0.671875 C 37.351562 0.671875 37.175781 0.671875 37 0.671875 L 8.375 -84.25 C 7.195312 -87.757812 5.707031 -90.050781 3.90625 -91.125 C 2.113281 -92.207031 0.5 -92.796875 -0.9375 -92.890625 L -0.9375 -95.59375 C 0.851562 -95.5 3.078125 -95.40625 5.734375 -95.3125 C 8.390625 -95.226562 10.976562 -95.1875 13.5 -95.1875 C 16.46875 -95.1875 19.234375 -95.226562 21.796875 -95.3125 C 24.367188 -95.40625 26.460938 -95.5 28.078125 -95.59375 Z M 28.078125 -95.59375 "/></g></g></g><g fill="#000000" fill-opacity="1"><g transform="translate(120.146306, 146.720934)"><g><path d="M 50.09375 -97.484375 C 58.644531 -97.484375 66.132812 -95.546875 72.5625 -91.671875 C 79 -87.804688 83.992188 -82.25 87.546875 -75 C 91.109375 -67.75 92.890625 -58.953125 92.890625 -48.609375 C 92.890625 -38.523438 91.066406 -29.703125 87.421875 -22.140625 C 83.773438 -14.578125 78.710938 -8.679688 72.234375 -4.453125 C 65.753906 -0.222656 58.328125 1.890625 49.953125 1.890625 C 41.398438 1.890625 33.90625 -0.0390625 27.46875 -3.90625 C 21.039062 -7.78125 16.046875 -13.363281 12.484375 -20.65625 C 8.929688 -27.945312 7.15625 -36.722656 7.15625 -46.984375 C 7.15625 -57.066406 9 -65.890625 12.6875 -73.453125 C 16.382812 -81.015625 21.445312 -86.910156 27.875 -91.140625 C 34.3125 -95.367188 41.71875 -97.484375 50.09375 -97.484375 Z M 49.546875 -95.046875 C 43.703125 -95.046875 38.617188 -93.019531 34.296875 -88.96875 C 29.972656 -84.925781 26.617188 -79.347656 24.234375 -72.234375 C 21.847656 -65.117188 20.65625 -56.882812 20.65625 -47.53125 C 20.65625 -37.988281 21.984375 -29.679688 24.640625 -22.609375 C 27.296875 -15.546875 30.894531 -10.101562 35.4375 -6.28125 C 39.988281 -2.457031 45.007812 -0.546875 50.5 -0.546875 C 56.34375 -0.546875 61.425781 -2.566406 65.75 -6.609375 C 70.070312 -10.660156 73.425781 -16.265625 75.8125 -23.421875 C 78.195312 -30.578125 79.390625 -38.789062 79.390625 -48.0625 C 79.390625 -57.695312 78.0625 -66.023438 75.40625 -73.046875 C 72.75 -80.066406 69.171875 -85.488281 64.671875 -89.3125 C 60.171875 -93.132812 55.128906 -95.046875 49.546875 -95.046875 Z M 49.546875 -95.046875 "/></g></g></g><g fill="#000000" fill-opacity="1"><g transform="translate(216.683574, 146.720934)"><g><path d="M 111.921875 -95.59375 L 111.921875 -92.890625 C 108.867188 -92.796875 106.550781 -92.457031 104.96875 -91.875 C 103.394531 -91.289062 102.335938 -90.210938 101.796875 -88.640625 C 101.253906 -87.066406 100.984375 -84.613281 100.984375 -81.28125 L 100.984375 -14.3125 C 100.984375 -11.070312 101.253906 -8.640625 101.796875 -7.015625 C 102.335938 -5.398438 103.394531 -4.320312 104.96875 -3.78125 C 106.550781 -3.238281 108.867188 -2.878906 111.921875 -2.703125 L 111.921875 0 C 109.859375 -0.175781 107.269531 -0.285156 104.15625 -0.328125 C 101.050781 -0.378906 97.925781 -0.40625 94.78125 -0.40625 C 91.269531 -0.40625 87.984375 -0.378906 84.921875 -0.328125 C 81.859375 -0.285156 79.382812 -0.175781 77.5 0 L 77.5 -2.703125 C 80.5625 -2.878906 82.878906 -3.238281 84.453125 -3.78125 C 86.023438 -4.320312 87.082031 -5.398438 87.625 -7.015625 C 88.164062 -8.640625 88.4375 -11.070312 88.4375 -14.3125 L 88.4375 -88.578125 L 88.96875 -88.171875 L 55.890625 0.671875 L 53.734375 0.671875 L 19.71875 -86.953125 L 19.71875 -15.65625 C 19.71875 -12.414062 20.007812 -9.875 20.59375 -8.03125 C 21.175781 -6.1875 22.34375 -4.878906 24.09375 -4.109375 C 25.851562 -3.347656 28.488281 -2.878906 32 -2.703125 L 32 0 C 30.375 -0.175781 28.253906 -0.285156 25.640625 -0.328125 C 23.035156 -0.378906 20.566406 -0.40625 18.234375 -0.40625 C 15.984375 -0.40625 13.707031 -0.378906 11.40625 -0.328125 C 9.113281 -0.285156 7.203125 -0.175781 5.671875 0 L 5.671875 -2.703125 C 8.734375 -2.878906 11.050781 -3.347656 12.625 -4.109375 C 14.195312 -4.878906 15.253906 -6.1875 15.796875 -8.03125 C 16.335938 -9.875 16.609375 -12.414062 16.609375 -15.65625 L 16.609375 -81.28125 C 16.609375 -84.613281 16.335938 -87.066406 15.796875 -88.640625 C 15.253906 -90.210938 14.195312 -91.289062 12.625 -91.875 C 11.050781 -92.457031 8.734375 -92.796875 5.671875 -92.890625 L 5.671875 -95.59375 C 7.203125 -95.5 9.113281 -95.40625 11.40625 -95.3125 C 13.707031 -95.226562 15.984375 -95.1875 18.234375 -95.1875 C 20.210938 -95.1875 22.257812 -95.226562 24.375 -95.3125 C 26.488281 -95.40625 28.265625 -95.5 29.703125 -95.59375 L 60.359375 -14.859375 L 58.0625 -13.765625 L 88.4375 -95.1875 C 89.519531 -95.1875 90.578125 -95.1875 91.609375 -95.1875 C 92.640625 -95.1875 93.695312 -95.1875 94.78125 -95.1875 C 97.925781 -95.1875 101.050781 -95.226562 104.15625 -95.3125 C 107.269531 -95.40625 109.859375 -95.5 111.921875 -95.59375 Z M 111.921875 -95.59375 "/></g></g></g><g fill="#000000" fill-opacity="1"><g transform="translate(331.85328, 146.720934)"><g><path d="M 43.609375 -96.265625 L 76.546875 -11.34375 C 77.898438 -7.914062 79.429688 -5.640625 81.140625 -4.515625 C 82.847656 -3.390625 84.425781 -2.785156 85.875 -2.703125 L 85.875 0 C 84.070312 -0.175781 81.863281 -0.285156 79.25 -0.328125 C 76.644531 -0.378906 74.035156 -0.40625 71.421875 -0.40625 C 67.910156 -0.40625 64.625 -0.378906 61.5625 -0.328125 C 58.507812 -0.285156 56.035156 -0.175781 54.140625 0 L 54.140625 -2.703125 C 58.734375 -2.878906 61.660156 -3.664062 62.921875 -5.0625 C 64.179688 -6.457031 63.910156 -9.453125 62.109375 -14.046875 L 37 -81.140625 L 39.15625 -82.90625 L 15.65625 -21.875 C 14.21875 -18.269531 13.363281 -15.226562 13.09375 -12.75 C 12.820312 -10.28125 13.066406 -8.320312 13.828125 -6.875 C 14.597656 -5.4375 15.90625 -4.398438 17.75 -3.765625 C 19.59375 -3.140625 21.910156 -2.785156 24.703125 -2.703125 L 24.703125 0 C 22.179688 -0.175781 19.546875 -0.285156 16.796875 -0.328125 C 14.054688 -0.378906 11.519531 -0.40625 9.1875 -0.40625 C 6.9375 -0.40625 5.019531 -0.378906 3.4375 -0.328125 C 1.863281 -0.285156 0.40625 -0.175781 -0.9375 0 L -0.9375 -2.703125 C 0.851562 -3.148438 2.691406 -4.207031 4.578125 -5.875 C 6.472656 -7.539062 8.1875 -10.398438 9.71875 -14.453125 L 41.453125 -96.265625 C 41.804688 -96.265625 42.160156 -96.265625 42.515625 -96.265625 C 42.878906 -96.265625 43.242188 -96.265625 43.609375 -96.265625 Z M 60.078125 -38.890625 L 60.078125 -36.1875 L 19.84375 -36.1875 L 21.203125 -38.890625 Z M 60.078125 -38.890625 "/></g></g></g><g fill="#000000" fill-opacity="1"><g transform="translate(411.783356, 146.720934)"><g><path d="M 90.453125 -95.59375 L 90.453125 -92.890625 C 87.398438 -92.796875 85.082031 -92.34375 83.5 -91.53125 C 81.925781 -90.726562 80.867188 -89.425781 80.328125 -87.625 C 79.796875 -85.820312 79.53125 -83.253906 79.53125 -79.921875 L 79.53125 0.671875 C 78.988281 0.671875 78.46875 0.671875 77.96875 0.671875 C 77.476562 0.671875 76.960938 0.671875 76.421875 0.671875 L 19.71875 -86.953125 L 19.71875 -15.65625 C 19.71875 -12.414062 20.007812 -9.875 20.59375 -8.03125 C 21.175781 -6.1875 22.34375 -4.878906 24.09375 -4.109375 C 25.851562 -3.347656 28.488281 -2.878906 32 -2.703125 L 32 0 C 30.375 -0.175781 28.253906 -0.285156 25.640625 -0.328125 C 23.035156 -0.378906 20.566406 -0.40625 18.234375 -0.40625 C 15.984375 -0.40625 13.707031 -0.378906 11.40625 -0.328125 C 9.113281 -0.285156 7.203125 -0.175781 5.671875 0 L 5.671875 -2.703125 C 8.734375 -2.878906 11.050781 -3.347656 12.625 -4.109375 C 14.195312 -4.878906 15.253906 -6.1875 15.796875 -8.03125 C 16.335938 -9.875 16.609375 -12.414062 16.609375 -15.65625 L 16.609375 -81.28125 C 16.609375 -84.613281 16.335938 -87.066406 15.796875 -88.640625 C 15.253906 -90.210938 14.195312 -91.289062 12.625 -91.875 C 11.050781 -92.457031 8.734375 -92.796875 5.671875 -92.890625 L 5.671875 -95.59375 C 7.203125 -95.5 9.113281 -95.40625 11.40625 -95.3125 C 13.707031 -95.226562 15.984375 -95.1875 18.234375 -95.1875 C 20.210938 -95.1875 22.097656 -95.226562 23.890625 -95.3125 C 25.691406 -95.40625 27.316406 -95.5 28.765625 -95.59375 L 76.421875 -22.140625 L 76.421875 -79.921875 C 76.421875 -83.253906 76.125 -85.820312 75.53125 -87.625 C 74.945312 -89.425781 73.773438 -90.726562 72.015625 -91.53125 C 70.265625 -92.34375 67.632812 -92.796875 64.125 -92.890625 L 64.125 -95.59375 C 65.75 -95.5 67.890625 -95.40625 70.546875 -95.3125 C 73.203125 -95.226562 75.65625 -95.1875 77.90625 -95.1875 C 80.25 -95.1875 82.566406 -95.226562 84.859375 -95.3125 C 87.148438 -95.40625 89.015625 -95.5 90.453125 -95.59375 Z M 90.453125 -95.59375 "/></g></g></g></g></g><g transform="matrix(1, 0, 0, 1, 42, 47)"><g clip-path="url(#73f88614d7)"><g clip-path="url(#f0d2a32911)"><g fill="#000000" fill-opacity="1"><g transform="translate(24.010953, 57.428534)"><g><path d="M 34.234375 -29.125 C 34.347656 -29.007812 34.425781 -28.832031 34.46875 -28.59375 C 34.46875 -28.476562 34.4375 -28.367188 34.375 -28.265625 C 34.320312 -28.171875 34.15625 -28.125 33.875 -28.125 C 33.757812 -28.125 33.628906 -28.132812 33.484375 -28.15625 C 33.347656 -28.175781 33.222656 -28.1875 33.109375 -28.1875 L 32.8125 -28.234375 C 30.632812 -28.515625 28.488281 -28.691406 26.375 -28.765625 C 24.257812 -28.847656 22.210938 -28.890625 20.234375 -28.890625 L 17.203125 -28.828125 C 16.691406 -28.828125 16.164062 -28.835938 15.625 -28.859375 C 15.09375 -28.878906 14.570312 -28.890625 14.0625 -28.890625 C 13.425781 -28.890625 12.890625 -28.8125 12.453125 -28.65625 C 12.023438 -28.5 11.691406 -28.160156 11.453125 -27.640625 L 10.375 -25.625 C 7.8125 -20.644531 5.300781 -15.523438 2.84375 -10.265625 C 0.394531 -5.003906 -1.5625 0.507812 -3.03125 6.28125 C -4.175781 10.789062 -4.707031 14.925781 -4.625 18.6875 C -4.625 18.84375 -4.625 19 -4.625 19.15625 C -4.625 19.519531 -4.613281 19.859375 -4.59375 20.171875 C -4.570312 20.484375 -4.445312 20.78125 -4.21875 21.0625 C -3.851562 21.414062 -3.316406 21.632812 -2.609375 21.71875 C -2.453125 21.71875 -2.332031 21.773438 -2.25 21.890625 C -2.09375 22.046875 -1.992188 22.242188 -1.953125 22.484375 C -1.921875 22.765625 -1.984375 22.953125 -2.140625 23.046875 C -2.296875 23.148438 -2.453125 23.203125 -2.609375 23.203125 L -2.671875 23.203125 C -4.410156 23.203125 -5.515625 22.367188 -5.984375 20.703125 C -6.265625 19.835938 -6.394531 19 -6.375 18.1875 C -6.351562 17.375 -6.304688 16.570312 -6.234375 15.78125 L -6.171875 15.3125 C -5.859375 11.75 -5.265625 8.304688 -4.390625 4.984375 C -3.515625 1.660156 -2.472656 -1.5625 -1.265625 -4.6875 C -0.0664062 -7.8125 1.144531 -10.894531 2.375 -13.9375 L 2.734375 -14.71875 C 3.328125 -16.21875 3.976562 -17.6875 4.6875 -19.125 C 5.394531 -20.570312 6.085938 -22.007812 6.765625 -23.4375 C 7.117188 -24.101562 7.460938 -24.769531 7.796875 -25.4375 C 8.140625 -26.113281 8.46875 -26.789062 8.78125 -27.46875 C 8.863281 -27.664062 8.910156 -27.890625 8.921875 -28.140625 C 8.941406 -28.398438 8.796875 -28.8125 8.484375 -29.375 L 8.359375 -29.484375 L 8.25 -29.484375 C 7.375 -29.484375 6.484375 -29.484375 5.578125 -29.484375 C 4.671875 -29.484375 3.757812 -29.484375 2.84375 -29.484375 C 1.9375 -29.523438 1.015625 -29.546875 0.078125 -29.546875 C -0.847656 -29.546875 -1.785156 -29.546875 -2.734375 -29.546875 C -5.660156 -29.546875 -8.25 -29.503906 -10.5 -29.421875 C -10.976562 -29.390625 -11.453125 -29.375 -11.921875 -29.375 C -12.398438 -29.375 -12.875 -29.375 -13.34375 -29.375 C -14.570312 -29.332031 -15.804688 -29.28125 -17.046875 -29.21875 C -18.296875 -29.15625 -19.492188 -28.988281 -20.640625 -28.71875 C -21.003906 -28.632812 -21.300781 -28.59375 -21.53125 -28.59375 C -21.8125 -28.59375 -22.050781 -28.65625 -22.25 -28.78125 C -22.363281 -28.894531 -22.460938 -29.09375 -22.546875 -29.375 C -22.617188 -29.726562 -22.441406 -29.90625 -22.015625 -29.90625 C -21.929688 -29.90625 -21.769531 -29.894531 -21.53125 -29.875 C -21.300781 -29.851562 -21.1875 -29.84375 -21.1875 -29.84375 L -21 -29.84375 C -18.789062 -30.039062 -16.609375 -30.164062 -14.453125 -30.21875 C -12.296875 -30.28125 -10.363281 -30.3125 -8.65625 -30.3125 C -7.75 -30.3125 -6.832031 -30.3125 -5.90625 -30.3125 C -4.976562 -30.3125 -4.054688 -30.3125 -3.140625 -30.3125 C -2.234375 -30.269531 -1.3125 -30.25 -0.375 -30.25 C 0.550781 -30.25 1.46875 -30.25 2.375 -30.25 C 3.238281 -30.25 4.101562 -30.25 4.96875 -30.25 C 5.84375 -30.25 6.71875 -30.269531 7.59375 -30.3125 C 8.425781 -30.351562 9.164062 -30.5 9.8125 -30.75 C 10.46875 -31.007812 10.992188 -31.535156 11.390625 -32.328125 C 13.046875 -35.804688 15.335938 -39.128906 18.265625 -42.296875 C 18.304688 -42.378906 18.390625 -42.476562 18.515625 -42.59375 C 18.628906 -42.75 18.753906 -42.90625 18.890625 -43.0625 C 19.035156 -43.226562 19.207031 -43.3125 19.40625 -43.3125 C 19.601562 -43.3125 19.835938 -43.191406 20.109375 -42.953125 C 20.460938 -42.640625 20.597656 -42.320312 20.515625 -42 C 20.441406 -41.6875 20.285156 -41.351562 20.046875 -41 C 19.734375 -40.5625 19.4375 -40.144531 19.15625 -39.75 C 18.882812 -39.351562 18.609375 -38.976562 18.328125 -38.625 C 17.460938 -37.4375 16.59375 -36.195312 15.71875 -34.90625 C 14.851562 -33.625 14.046875 -32.210938 13.296875 -30.671875 L 13.109375 -30.375 L 18.390625 -30.375 C 22.585938 -30.375 27.332031 -30.054688 32.625 -29.421875 C 32.707031 -29.421875 32.847656 -29.421875 33.046875 -29.421875 C 33.242188 -29.421875 33.453125 -29.398438 33.671875 -29.359375 C 33.890625 -29.328125 34.078125 -29.25 34.234375 -29.125 Z M 34.234375 -29.125 "/></g></g></g></g><g clip-path="url(#dc2d92ee61)"><g fill="#000000" fill-opacity="1"><g transform="translate(34.21398, 57.428534)"><g><path d="M 36.3125 -9.078125 C 36.582031 -8.523438 36.460938 -7.890625 35.953125 -7.171875 C 35.441406 -6.460938 34.988281 -5.875 34.59375 -5.40625 C 34.351562 -5.164062 34.191406 -4.984375 34.109375 -4.859375 C 30.078125 0.316406 25.628906 3.753906 20.765625 5.453125 C 20.410156 5.578125 20.035156 5.695312 19.640625 5.8125 C 19.242188 5.925781 18.828125 5.984375 18.390625 5.984375 C 17.523438 5.984375 16.710938 5.671875 15.953125 5.046875 C 15.160156 4.410156 14.695312 3.6875 14.5625 2.875 C 14.425781 2.0625 14.359375 1.203125 14.359375 0.296875 C 14.398438 -1.597656 14.742188 -3.347656 15.390625 -4.953125 C 16.046875 -6.554688 16.75 -8.128906 17.5 -9.671875 L 17.96875 -10.671875 C 18.09375 -10.867188 18.210938 -11.164062 18.328125 -11.5625 C 18.453125 -11.957031 18.375 -12.273438 18.09375 -12.515625 C 17.894531 -12.671875 17.660156 -12.75 17.390625 -12.75 C 16.796875 -12.75 16.09375 -12.441406 15.28125 -11.828125 C 14.46875 -11.222656 13.742188 -10.625 13.109375 -10.03125 L 13 -9.90625 C 12.519531 -9.507812 12.070312 -9.082031 11.65625 -8.625 C 11.238281 -8.175781 10.832031 -7.734375 10.4375 -7.296875 C 10.195312 -7.054688 9.945312 -6.804688 9.6875 -6.546875 C 9.4375 -6.296875 9.191406 -6.03125 8.953125 -5.75 L 7.71875 -4.515625 C 6.957031 -3.753906 6.203125 -2.988281 5.453125 -2.21875 C 4.703125 -1.445312 3.929688 -0.6875 3.140625 0.0625 C 2.898438 0.300781 2.640625 0.507812 2.359375 0.6875 C 2.085938 0.863281 1.773438 0.953125 1.421875 0.953125 C 1.066406 0.953125 0.710938 0.832031 0.359375 0.59375 C -0.234375 0.238281 -0.566406 -0.179688 -0.640625 -0.671875 C -0.722656 -1.171875 -0.75 -1.695312 -0.71875 -2.25 C -0.59375 -4.664062 -0.144531 -6.960938 0.625 -9.140625 C 1.394531 -11.316406 2.195312 -13.453125 3.03125 -15.546875 C 3.34375 -16.253906 3.921875 -17.421875 4.765625 -19.046875 C 5.617188 -20.671875 6.628906 -22.539062 7.796875 -24.65625 C 8.960938 -26.769531 10.195312 -28.972656 11.5 -31.265625 C 12.8125 -33.554688 14.070312 -35.75 15.28125 -37.84375 C 16.488281 -39.945312 17.535156 -41.785156 18.421875 -43.359375 C 19.304688 -44.941406 19.945312 -46.09375 20.34375 -46.8125 C 20.9375 -47.84375 21.550781 -48.859375 22.1875 -49.859375 C 22.820312 -50.867188 23.492188 -51.847656 24.203125 -52.796875 C 24.441406 -53.117188 24.773438 -53.59375 25.203125 -54.21875 C 25.640625 -54.851562 26.125 -55.425781 26.65625 -55.9375 C 27.195312 -56.457031 27.722656 -56.675781 28.234375 -56.59375 C 28.796875 -56.5625 29.066406 -56.316406 29.046875 -55.859375 C 29.023438 -55.398438 28.894531 -54.894531 28.65625 -54.34375 C 28.34375 -53.675781 27.96875 -53.023438 27.53125 -52.390625 C 27.09375 -51.753906 26.816406 -51.359375 26.703125 -51.203125 C 25.867188 -50.128906 24.816406 -48.570312 23.546875 -46.53125 C 22.285156 -44.5 20.898438 -42.175781 19.390625 -39.5625 C 17.890625 -36.957031 16.359375 -34.25 14.796875 -31.4375 C 13.234375 -28.632812 11.757812 -25.894531 10.375 -23.21875 C 9 -20.550781 7.785156 -18.128906 6.734375 -15.953125 C 5.679688 -13.785156 4.941406 -12.046875 4.515625 -10.734375 C 4.035156 -9.390625 3.5 -8.046875 2.90625 -6.703125 C 2.3125 -5.359375 1.878906 -3.972656 1.609375 -2.546875 C 1.523438 -2.035156 1.582031 -1.679688 1.78125 -1.484375 C 1.894531 -1.367188 2.050781 -1.3125 2.25 -1.3125 C 2.445312 -1.3125 2.707031 -1.367188 3.03125 -1.484375 C 3.5 -1.722656 3.910156 -2.019531 4.265625 -2.375 C 4.628906 -2.726562 4.96875 -3.101562 5.28125 -3.5 C 5.394531 -3.65625 5.519531 -3.8125 5.65625 -3.96875 C 5.800781 -4.132812 5.953125 -4.296875 6.109375 -4.453125 C 6.390625 -4.722656 6.664062 -5.003906 6.9375 -5.296875 C 7.21875 -5.597656 7.492188 -5.910156 7.765625 -6.234375 C 8.085938 -6.546875 8.414062 -6.878906 8.75 -7.234375 C 9.082031 -7.585938 9.410156 -7.925781 9.734375 -8.25 L 9.90625 -8.421875 C 10.9375 -9.453125 12.003906 -10.472656 13.109375 -11.484375 C 14.210938 -12.492188 15.398438 -13.390625 16.671875 -14.171875 C 16.910156 -14.335938 17.175781 -14.507812 17.46875 -14.6875 C 17.769531 -14.863281 18.097656 -14.953125 18.453125 -14.953125 C 18.847656 -14.953125 19.222656 -14.8125 19.578125 -14.53125 C 20.566406 -13.820312 20.820312 -12.753906 20.34375 -11.328125 C 19.988281 -10.140625 19.613281 -8.984375 19.21875 -7.859375 C 18.820312 -6.734375 18.425781 -5.632812 18.03125 -4.5625 L 17.734375 -3.734375 C 17.421875 -2.867188 17.113281 -1.976562 16.8125 -1.0625 C 16.519531 -0.15625 16.316406 0.789062 16.203125 1.78125 C 16.117188 2.882812 16.316406 3.695312 16.796875 4.21875 C 17.265625 4.6875 17.953125 4.921875 18.859375 4.921875 C 19.054688 4.921875 19.273438 4.921875 19.515625 4.921875 C 20.546875 4.804688 21.484375 4.5625 22.328125 4.1875 C 23.179688 3.8125 23.945312 3.40625 24.625 2.96875 C 26.832031 1.582031 28.828125 -0.117188 30.609375 -2.140625 C 31.128906 -2.691406 31.601562 -3.28125 32.03125 -3.90625 C 32.46875 -4.539062 32.882812 -5.175781 33.28125 -5.8125 C 33.5625 -6.25 33.835938 -6.679688 34.109375 -7.109375 C 34.390625 -7.546875 34.664062 -7.984375 34.9375 -8.421875 C 35.0625 -8.546875 35.234375 -8.707031 35.453125 -8.90625 C 35.671875 -9.101562 35.878906 -9.203125 36.078125 -9.203125 C 36.148438 -9.203125 36.226562 -9.160156 36.3125 -9.078125 Z M 36.3125 -9.078125 "/></g></g></g></g><g fill="#000000" fill-opacity="1"><g transform="translate(69.331379, 57.428534)"><g><path d="M 20.296875 -8.78125 C 20.566406 -8.9375 20.878906 -9.015625 21.234375 -9.015625 C 21.273438 -8.816406 21.195312 -8.628906 21 -8.453125 C 20.800781 -8.273438 20.625 -8.109375 20.46875 -7.953125 L 20.109375 -7.65625 C 18.679688 -6.582031 17.238281 -5.539062 15.78125 -4.53125 C 14.320312 -3.53125 12.75 -2.703125 11.0625 -2.046875 C 9.382812 -1.390625 7.515625 -1.0625 5.453125 -1.0625 L 5.21875 -1.0625 C 3.195312 -1.0625 1.632812 -1.675781 0.53125 -2.90625 C -0.457031 -4.050781 -0.789062 -5.4375 -0.46875 -7.0625 C 0.632812 -12.476562 4.148438 -15.976562 10.078125 -17.5625 C 10.398438 -17.644531 10.71875 -17.6875 11.03125 -17.6875 C 11.976562 -17.6875 12.75 -17.269531 13.34375 -16.4375 C 13.820312 -15.800781 13.972656 -15.253906 13.796875 -14.796875 C 13.617188 -14.347656 13.351562 -13.882812 13 -13.40625 C 11.414062 -11.46875 8.800781 -10.222656 5.15625 -9.671875 C 3.851562 -9.472656 3.003906 -8.957031 2.609375 -8.125 C 2.210938 -7.289062 1.914062 -6.398438 1.71875 -5.453125 L 1.65625 -5.046875 C 1.539062 -4.492188 1.640625 -3.976562 1.953125 -3.5 C 2.390625 -2.90625 3.082031 -2.46875 4.03125 -2.1875 C 4.75 -2 5.5 -1.90625 6.28125 -1.90625 C 6.914062 -1.90625 7.53125 -1.960938 8.125 -2.078125 C 8.71875 -2.191406 9.351562 -2.347656 10.03125 -2.546875 C 12.125 -3.140625 14.21875 -4.148438 16.3125 -5.578125 C 17.226562 -6.171875 18.140625 -6.882812 19.046875 -7.71875 C 19.117188 -7.75 19.195312 -7.804688 19.28125 -7.890625 C 19.363281 -7.972656 19.441406 -8.050781 19.515625 -8.125 C 19.640625 -8.25 19.757812 -8.359375 19.875 -8.453125 C 19.988281 -8.554688 20.128906 -8.664062 20.296875 -8.78125 Z M 5.875 -11.8125 L 5.453125 -11.328125 L 6.109375 -11.515625 C 7.492188 -11.828125 8.671875 -12.238281 9.640625 -12.75 C 10.609375 -13.269531 11.445312 -14.101562 12.15625 -15.25 L 12.40625 -15.71875 L 11.859375 -15.546875 C 10.710938 -15.191406 9.644531 -14.742188 8.65625 -14.203125 C 7.664062 -13.671875 6.738281 -12.875 5.875 -11.8125 Z M 5.875 -11.8125 "/></g></g></g><g fill="#000000" fill-opacity="1"><g transform="translate(89.566321, 57.428534)"><g/></g></g></g></g><g transform="matrix(1, 0, 0, 1, 564, 231)"><g clip-path="url(#1bb3dfa01a)"><g clip-path="url(#812fab065f)"><g fill="#000000" fill-opacity="1"><g transform="translate(7.444557, 72.502166)"><g><path d="M 55.25 10.640625 L 55.328125 10.765625 C 55.160156 10.785156 54.921875 10.722656 54.609375 10.578125 C 54.347656 10.441406 54.0625 10.273438 53.75 10.078125 C 53.4375 9.890625 53.125 9.707031 52.8125 9.53125 C 52.675781 9.414062 52.550781 9.3125 52.4375 9.21875 C 52.320312 9.125 52.195312 9.039062 52.0625 8.96875 C 51.664062 8.71875 51.273438 8.460938 50.890625 8.203125 C 50.515625 7.953125 50.144531 7.707031 49.78125 7.46875 C 48.96875 6.925781 48.160156 6.390625 47.359375 5.859375 C 46.554688 5.335938 45.726562 4.832031 44.875 4.34375 C 44.25 3.945312 43.609375 3.566406 42.953125 3.203125 C 42.304688 2.835938 41.679688 2.457031 41.078125 2.0625 C 40.890625 1.957031 40.6875 1.84375 40.46875 1.71875 C 40.25 1.59375 40.023438 1.476562 39.796875 1.375 C 39.359375 1.164062 38.925781 0.9375 38.5 0.6875 C 38.082031 0.4375 37.710938 0.1875 37.390625 -0.0625 C 32.628906 -2.863281 28.390625 -5.070312 24.671875 -6.6875 C 23.671875 -7.070312 22.921875 -7.238281 22.421875 -7.1875 C 21.753906 -7.113281 21.222656 -6.597656 20.828125 -5.640625 C 20.597656 -5.109375 20.238281 -4.140625 19.75 -2.734375 C 19.269531 -1.328125 18.722656 0.316406 18.109375 2.203125 C 17.503906 4.085938 16.867188 6.050781 16.203125 8.09375 C 15.535156 10.132812 14.90625 12.109375 14.3125 14.015625 C 13.726562 15.921875 13.21875 17.570312 12.78125 18.96875 C 12.34375 20.375 12.03125 21.359375 11.84375 21.921875 C 11.53125 23.003906 11.203125 24.09375 10.859375 25.1875 C 10.515625 26.289062 10.15625 27.390625 9.78125 28.484375 C 9.75 28.609375 9.707031 28.734375 9.65625 28.859375 C 9.613281 28.984375 9.578125 29.113281 9.546875 29.25 C 9.453125 29.550781 9.363281 29.828125 9.28125 30.078125 C 9.207031 30.335938 9.101562 30.601562 8.96875 30.875 C 8.863281 31.09375 8.734375 31.289062 8.578125 31.46875 C 8.429688 31.65625 8.253906 31.757812 8.046875 31.78125 C 7.835938 31.800781 7.601562 31.742188 7.34375 31.609375 C 6.375 31.203125 6.03125 30.507812 6.3125 29.53125 C 6.738281 28.019531 7.164062 26.507812 7.59375 25 C 8.019531 23.5 8.445312 21.992188 8.875 20.484375 L 9.5 18.28125 C 9.625 17.851562 9.878906 17.003906 10.265625 15.734375 C 10.660156 14.460938 11.128906 12.941406 11.671875 11.171875 C 12.222656 9.410156 12.800781 7.5625 13.40625 5.625 C 14.007812 3.695312 14.582031 1.847656 15.125 0.078125 C 15.675781 -1.679688 16.15625 -3.195312 16.5625 -4.46875 C 16.96875 -5.738281 17.234375 -6.59375 17.359375 -7.03125 C 17.492188 -7.382812 17.5625 -7.707031 17.5625 -8 C 17.570312 -8.289062 17.484375 -8.554688 17.296875 -8.796875 C 17.003906 -9.160156 16.390625 -9.441406 15.453125 -9.640625 L 14.375 -9.84375 C 13.175781 -10.050781 11.960938 -10.238281 10.734375 -10.40625 C 9.503906 -10.570312 8.285156 -10.65625 7.078125 -10.65625 C 6.609375 -10.632812 6.140625 -10.671875 5.671875 -10.765625 C 5.210938 -10.867188 4.859375 -11.140625 4.609375 -11.578125 C 4.097656 -12.398438 4.425781 -13.078125 5.59375 -13.609375 C 7.976562 -14.617188 10.21875 -15.566406 12.3125 -16.453125 C 14.414062 -17.347656 16.535156 -18.195312 18.671875 -19 C 20.359375 -19.601562 21.425781 -20.722656 21.875 -22.359375 C 24.414062 -30.804688 27.078125 -38.457031 29.859375 -45.3125 C 29.890625 -45.394531 29.984375 -45.53125 30.140625 -45.71875 C 30.253906 -45.851562 30.359375 -46.019531 30.453125 -46.21875 C 30.554688 -46.414062 30.570312 -46.640625 30.5 -46.890625 C 30.34375 -47.285156 29.84375 -47.691406 29 -48.109375 C 28.894531 -48.304688 28.988281 -48.597656 29.28125 -48.984375 C 29.582031 -49.367188 29.863281 -49.71875 30.125 -50.03125 C 30.226562 -50.164062 30.332031 -50.300781 30.4375 -50.4375 C 30.550781 -50.570312 30.660156 -50.707031 30.765625 -50.84375 L 30.984375 -51.1875 C 31.160156 -51.457031 31.367188 -51.734375 31.609375 -52.015625 C 31.859375 -52.296875 32.148438 -52.453125 32.484375 -52.484375 C 32.804688 -52.515625 33.175781 -52.382812 33.59375 -52.09375 C 34.132812 -51.726562 34.394531 -51.328125 34.375 -50.890625 C 34.363281 -50.453125 34.257812 -49.945312 34.0625 -49.375 L 33.90625 -49 C 33.09375 -46.476562 32.273438 -43.96875 31.453125 -41.46875 C 30.628906 -38.96875 29.8125 -36.460938 29 -33.953125 L 25.90625 -24.515625 C 25.851562 -24.273438 25.785156 -24.035156 25.703125 -23.796875 C 25.617188 -23.566406 25.550781 -23.320312 25.5 -23.0625 L 25.234375 -21.953125 L 25.609375 -21.9375 C 25.867188 -21.914062 26.101562 -21.914062 26.3125 -21.9375 C 26.894531 -22 27.320312 -22.203125 27.59375 -22.546875 C 27.875 -22.890625 28.117188 -23.242188 28.328125 -23.609375 C 28.472656 -23.878906 28.578125 -24.082031 28.640625 -24.21875 C 30.953125 -27.664062 33.484375 -31.09375 36.234375 -34.5 C 38.984375 -37.90625 42.285156 -40.890625 46.140625 -43.453125 C 47.203125 -44.148438 48.328125 -44.789062 49.515625 -45.375 C 50.703125 -45.96875 52.039062 -46.347656 53.53125 -46.515625 L 53.96875 -46.5625 C 55.945312 -46.726562 57.523438 -46.257812 58.703125 -45.15625 C 59.816406 -44.0625 60.21875 -42.601562 59.90625 -40.78125 C 59.613281 -38.820312 58.890625 -37.164062 57.734375 -35.8125 C 56.585938 -34.457031 55.398438 -33.265625 54.171875 -32.234375 C 48.921875 -27.742188 42.257812 -24.320312 34.1875 -21.96875 C 29.007812 -20.414062 25.519531 -17.101562 23.71875 -12.03125 C 23.582031 -11.71875 23.445312 -11.394531 23.3125 -11.0625 C 23.1875 -10.738281 23.0625 -10.421875 22.9375 -10.109375 L 22.515625 -9.21875 L 22.984375 -8.953125 C 23.078125 -8.921875 23.382812 -8.773438 23.90625 -8.515625 C 24.4375 -8.253906 25.039062 -7.957031 25.71875 -7.625 C 26.394531 -7.300781 27.046875 -6.984375 27.671875 -6.671875 C 28.296875 -6.367188 28.738281 -6.164062 29 -6.0625 C 31.019531 -5.03125 33.0625 -3.910156 35.125 -2.703125 C 37.507812 -1.328125 39.867188 0.140625 42.203125 1.703125 C 44.546875 3.273438 46.84375 4.84375 49.09375 6.40625 C 50.039062 7.0625 50.988281 7.710938 51.9375 8.359375 C 52.882812 9.015625 53.832031 9.664062 54.78125 10.3125 C 55.039062 10.457031 55.195312 10.566406 55.25 10.640625 Z M 19.515625 -16.40625 L 19.15625 -16.296875 C 15.726562 -15.347656 12.488281 -14.132812 9.4375 -12.65625 L 8.84375 -12.34375 L 9.609375 -12.234375 C 11.523438 -11.847656 13.085938 -11.5625 14.296875 -11.375 C 15.503906 -11.1875 16.441406 -11.128906 17.109375 -11.203125 C 18.140625 -11.316406 18.765625 -11.75 18.984375 -12.5 C 19.203125 -13.257812 19.375 -14.414062 19.5 -15.96875 Z M 57.359375 -44.703125 C 56.429688 -45.523438 55.328125 -45.875 54.046875 -45.75 C 53.472656 -45.6875 52.800781 -45.53125 52.03125 -45.28125 C 48.863281 -44.0625 46.097656 -42.445312 43.734375 -40.4375 C 41.378906 -38.4375 39.285156 -36.234375 37.453125 -33.828125 C 35.628906 -31.421875 33.867188 -28.984375 32.171875 -26.515625 L 30.25 -23.75 L 30.984375 -23.953125 C 37.910156 -25.972656 43.867188 -28.484375 48.859375 -31.484375 C 50.597656 -32.484375 52.253906 -33.632812 53.828125 -34.9375 C 55.398438 -36.238281 56.664062 -37.832031 57.625 -39.71875 C 58.019531 -40.394531 58.316406 -41.171875 58.515625 -42.046875 C 58.722656 -42.921875 58.335938 -43.804688 57.359375 -44.703125 Z M 57.359375 -44.703125 "/></g></g></g></g><g fill="#000000" fill-opacity="1"><g transform="translate(52.606106, 67.733796)"><g><path d="M 20.21875 -11.40625 C 20.476562 -11.601562 20.796875 -11.722656 21.171875 -11.765625 C 21.234375 -11.554688 21.171875 -11.347656 20.984375 -11.140625 C 20.796875 -10.929688 20.632812 -10.734375 20.5 -10.546875 L 20.171875 -10.203125 C 18.785156 -8.941406 17.382812 -7.703125 15.96875 -6.484375 C 14.5625 -5.265625 13.015625 -4.222656 11.328125 -3.359375 C 9.640625 -2.492188 7.722656 -1.953125 5.578125 -1.734375 L 5.328125 -1.703125 C 3.222656 -1.484375 1.53125 -1.945312 0.25 -3.09375 C -0.925781 -4.175781 -1.4375 -5.582031 -1.28125 -7.3125 C -0.707031 -13.09375 2.582031 -17.132812 8.59375 -19.4375 C 8.914062 -19.5625 9.242188 -19.640625 9.578125 -19.671875 C 10.554688 -19.773438 11.40625 -19.425781 12.125 -18.625 C 12.695312 -18.019531 12.910156 -17.46875 12.765625 -16.96875 C 12.628906 -16.476562 12.398438 -15.96875 12.078125 -15.4375 C 10.648438 -13.238281 8.066406 -11.644531 4.328125 -10.65625 C 2.984375 -10.320312 2.148438 -9.691406 1.828125 -8.765625 C 1.503906 -7.847656 1.289062 -6.890625 1.1875 -5.890625 L 1.171875 -5.453125 C 1.109375 -4.847656 1.269531 -4.320312 1.65625 -3.875 C 2.175781 -3.289062 2.941406 -2.910156 3.953125 -2.734375 C 4.734375 -2.609375 5.539062 -2.585938 6.375 -2.671875 C 7.019531 -2.742188 7.644531 -2.875 8.25 -3.0625 C 8.863281 -3.257812 9.507812 -3.492188 10.1875 -3.765625 C 12.3125 -4.617188 14.390625 -5.90625 16.421875 -7.625 C 17.296875 -8.351562 18.171875 -9.191406 19.046875 -10.140625 C 19.117188 -10.191406 19.191406 -10.265625 19.265625 -10.359375 C 19.347656 -10.453125 19.425781 -10.546875 19.5 -10.640625 C 19.601562 -10.773438 19.710938 -10.898438 19.828125 -11.015625 C 19.941406 -11.140625 20.070312 -11.269531 20.21875 -11.40625 Z M 4.84375 -12.96875 L 4.453125 -12.453125 L 5.125 -12.6875 C 6.519531 -13.175781 7.695312 -13.738281 8.65625 -14.375 C 9.625 -15.019531 10.40625 -15.984375 11 -17.265625 L 11.203125 -17.78125 L 10.671875 -17.546875 C 9.515625 -17.046875 8.445312 -16.460938 7.46875 -15.796875 C 6.488281 -15.128906 5.613281 -14.1875 4.84375 -12.96875 Z M 4.84375 -12.96875 "/></g></g></g><g fill="#000000" fill-opacity="1"><g transform="translate(75.341921, 65.333241)"><g><path d="M 19.90625 -13.1875 L 20.0625 -12.953125 C 20.070312 -12.785156 19.882812 -12.640625 19.5 -12.515625 C 19.125 -12.390625 18.8125 -12.296875 18.5625 -12.234375 C 18.320312 -12.160156 18.179688 -12.125 18.140625 -12.125 C 17.566406 -11.894531 17 -11.675781 16.4375 -11.46875 C 15.882812 -11.269531 15.328125 -11.035156 14.765625 -10.765625 C 12.648438 -9.867188 10.847656 -8.953125 9.359375 -8.015625 C 8.222656 -7.265625 7.179688 -6.421875 6.234375 -5.484375 C 5.296875 -4.546875 4.769531 -3.21875 4.65625 -1.5 C 4.414062 1.664062 2.882812 4.75 0.0625 7.75 C -1.019531 8.914062 -2.179688 9.566406 -3.421875 9.703125 C -4.296875 9.796875 -5.070312 9.601562 -5.75 9.125 C -6.632812 8.5 -7.140625 7.609375 -7.265625 6.453125 C -7.390625 5.304688 -7.078125 4.171875 -6.328125 3.046875 C -5.390625 1.566406 -4.238281 0.257812 -2.875 -0.875 C -1.519531 -2.019531 -0.117188 -3.070312 1.328125 -4.03125 C 2.222656 -4.613281 2.675781 -5.265625 2.6875 -5.984375 C 2.695312 -6.703125 2.273438 -7.578125 1.421875 -8.609375 C 1.085938 -8.953125 0.773438 -9.304688 0.484375 -9.671875 C 0.203125 -10.035156 -0.0820312 -10.410156 -0.375 -10.796875 L -0.890625 -11.5 C -2.015625 -12.914062 -2.148438 -14.15625 -1.296875 -15.21875 C 1.546875 -18.769531 5.347656 -20.945312 10.109375 -21.75 L 10.421875 -21.78125 C 11.492188 -21.894531 12.359375 -21.648438 13.015625 -21.046875 C 13.703125 -20.398438 13.984375 -19.472656 13.859375 -18.265625 C 13.703125 -16.992188 13.050781 -15.832031 11.90625 -14.78125 C 11.820312 -14.6875 11.710938 -14.585938 11.578125 -14.484375 C 11.441406 -14.390625 11.296875 -14.335938 11.140625 -14.328125 C 10.972656 -14.304688 10.773438 -14.367188 10.546875 -14.515625 C 10.296875 -14.648438 10.179688 -14.820312 10.203125 -15.03125 C 10.222656 -15.25 10.28125 -15.507812 10.375 -15.8125 C 10.5625 -16.300781 10.742188 -16.769531 10.921875 -17.21875 C 11.097656 -17.675781 11.289062 -18.125 11.5 -18.5625 C 11.601562 -18.820312 11.671875 -19.078125 11.703125 -19.328125 C 11.742188 -19.585938 11.640625 -19.867188 11.390625 -20.171875 C 11.097656 -20.523438 10.726562 -20.675781 10.28125 -20.625 C 10.195312 -20.613281 10.0625 -20.578125 9.875 -20.515625 L 9.6875 -20.5 C 5.757812 -19.664062 2.734375 -17.828125 0.609375 -14.984375 C -0.078125 -14.023438 0.128906 -13.023438 1.234375 -11.984375 C 1.835938 -11.410156 2.410156 -10.78125 2.953125 -10.09375 C 3.484375 -9.34375 3.984375 -8.734375 4.453125 -8.265625 C 4.921875 -7.804688 5.488281 -7.613281 6.15625 -7.6875 C 6.507812 -7.71875 6.945312 -7.878906 7.46875 -8.171875 C 8.96875 -9.046875 10.503906 -9.835938 12.078125 -10.546875 C 13.648438 -11.253906 15.132812 -11.890625 16.53125 -12.453125 C 16.78125 -12.566406 17.15625 -12.710938 17.65625 -12.890625 C 18.15625 -13.066406 18.632812 -13.179688 19.09375 -13.234375 C 19.34375 -13.253906 19.53125 -13.25 19.65625 -13.21875 C 19.789062 -13.195312 19.875 -13.1875 19.90625 -13.1875 Z M -1.921875 7.828125 C 1.191406 5.753906 2.875 2.320312 3.125 -2.46875 L 2.71875 -2.609375 C 2.695312 -2.441406 2.492188 -2.222656 2.109375 -1.953125 C 1.722656 -1.679688 1.375 -1.445312 1.0625 -1.25 C 0.675781 -1 0.441406 -0.828125 0.359375 -0.734375 C -0.554688 0.078125 -1.375 0.859375 -2.09375 1.609375 L -2.46875 2.015625 C -3.070312 2.660156 -3.695312 3.398438 -4.34375 4.234375 C -4.988281 5.078125 -5.304688 5.941406 -5.296875 6.828125 C -5.285156 7.378906 -5.113281 7.796875 -4.78125 8.078125 C -4.457031 8.335938 -4.003906 8.4375 -3.421875 8.375 C -3.097656 8.34375 -2.804688 8.269531 -2.546875 8.15625 C -2.285156 8.039062 -2.078125 7.929688 -1.921875 7.828125 Z M -1.921875 7.828125 "/></g></g></g><g fill="#000000" fill-opacity="1"><g transform="translate(96.343145, 63.115833)"><g><path d="M 20.21875 -11.40625 C 20.476562 -11.601562 20.796875 -11.722656 21.171875 -11.765625 C 21.234375 -11.554688 21.171875 -11.347656 20.984375 -11.140625 C 20.796875 -10.929688 20.632812 -10.734375 20.5 -10.546875 L 20.171875 -10.203125 C 18.785156 -8.941406 17.382812 -7.703125 15.96875 -6.484375 C 14.5625 -5.265625 13.015625 -4.222656 11.328125 -3.359375 C 9.640625 -2.492188 7.722656 -1.953125 5.578125 -1.734375 L 5.328125 -1.703125 C 3.222656 -1.484375 1.53125 -1.945312 0.25 -3.09375 C -0.925781 -4.175781 -1.4375 -5.582031 -1.28125 -7.3125 C -0.707031 -13.09375 2.582031 -17.132812 8.59375 -19.4375 C 8.914062 -19.5625 9.242188 -19.640625 9.578125 -19.671875 C 10.554688 -19.773438 11.40625 -19.425781 12.125 -18.625 C 12.695312 -18.019531 12.910156 -17.46875 12.765625 -16.96875 C 12.628906 -16.476562 12.398438 -15.96875 12.078125 -15.4375 C 10.648438 -13.238281 8.066406 -11.644531 4.328125 -10.65625 C 2.984375 -10.320312 2.148438 -9.691406 1.828125 -8.765625 C 1.503906 -7.847656 1.289062 -6.890625 1.1875 -5.890625 L 1.171875 -5.453125 C 1.109375 -4.847656 1.269531 -4.320312 1.65625 -3.875 C 2.175781 -3.289062 2.941406 -2.910156 3.953125 -2.734375 C 4.734375 -2.609375 5.539062 -2.585938 6.375 -2.671875 C 7.019531 -2.742188 7.644531 -2.875 8.25 -3.0625 C 8.863281 -3.257812 9.507812 -3.492188 10.1875 -3.765625 C 12.3125 -4.617188 14.390625 -5.90625 16.421875 -7.625 C 17.296875 -8.351562 18.171875 -9.191406 19.046875 -10.140625 C 19.117188 -10.191406 19.191406 -10.265625 19.265625 -10.359375 C 19.347656 -10.453125 19.425781 -10.546875 19.5 -10.640625 C 19.601562 -10.773438 19.710938 -10.898438 19.828125 -11.015625 C 19.941406 -11.140625 20.070312 -11.269531 20.21875 -11.40625 Z M 4.84375 -12.96875 L 4.453125 -12.453125 L 5.125 -12.6875 C 6.519531 -13.175781 7.695312 -13.738281 8.65625 -14.375 C 9.625 -15.019531 10.40625 -15.984375 11 -17.265625 L 11.203125 -17.78125 L 10.671875 -17.546875 C 9.515625 -17.046875 8.445312 -16.460938 7.46875 -15.796875 C 6.488281 -15.128906 5.613281 -14.1875 4.84375 -12.96875 Z M 4.84375 -12.96875 "/></g></g></g><g fill="#000000" fill-opacity="1"><g transform="translate(119.07896, 60.715278)"><g><path d="M 32.515625 -34.1875 C 32.660156 -34.082031 32.765625 -33.90625 32.828125 -33.65625 C 32.835938 -33.53125 32.816406 -33.414062 32.765625 -33.3125 C 32.722656 -33.207031 32.5625 -33.140625 32.28125 -33.109375 C 32.15625 -33.097656 32.019531 -33.09375 31.875 -33.09375 C 31.726562 -33.101562 31.59375 -33.101562 31.46875 -33.09375 L 31.15625 -33.109375 C 28.851562 -33.160156 26.585938 -33.109375 24.359375 -32.953125 C 22.140625 -32.804688 20 -32.625 17.9375 -32.40625 L 14.796875 -32 C 14.253906 -31.945312 13.703125 -31.898438 13.140625 -31.859375 C 12.578125 -31.828125 12.03125 -31.78125 11.5 -31.71875 C 10.832031 -31.65625 10.28125 -31.515625 9.84375 -31.296875 C 9.40625 -31.078125 9.09375 -30.691406 8.90625 -30.140625 L 8.015625 -27.890625 C 5.890625 -22.410156 3.832031 -16.785156 1.84375 -11.015625 C -0.144531 -5.253906 -1.582031 0.71875 -2.46875 6.90625 C -3.164062 11.726562 -3.265625 16.101562 -2.765625 20.03125 C -2.742188 20.195312 -2.726562 20.363281 -2.71875 20.53125 C -2.675781 20.90625 -2.625 21.25 -2.5625 21.5625 C -2.507812 21.882812 -2.34375 22.179688 -2.0625 22.453125 C -1.664062 22.785156 -1.085938 22.953125 -0.328125 22.953125 C -0.160156 22.941406 -0.0351562 22.992188 0.046875 23.109375 C 0.234375 23.253906 0.363281 23.453125 0.4375 23.703125 C 0.507812 23.972656 0.46875 24.171875 0.3125 24.296875 C 0.164062 24.421875 0.0078125 24.488281 -0.15625 24.5 L -0.21875 24.515625 C -2.039062 24.703125 -3.296875 23.953125 -3.984375 22.265625 C -4.367188 21.398438 -4.59375 20.539062 -4.65625 19.6875 C -4.726562 18.84375 -4.769531 18.003906 -4.78125 17.171875 L -4.765625 16.671875 C -4.828125 12.910156 -4.582031 9.25 -4.03125 5.6875 C -3.488281 2.125 -2.757812 -1.351562 -1.84375 -4.75 C -0.925781 -8.15625 0 -11.515625 0.9375 -14.828125 L 1.21875 -15.671875 C 1.675781 -17.304688 2.195312 -18.914062 2.78125 -20.5 C 3.375 -22.082031 3.941406 -23.65625 4.484375 -25.21875 C 4.765625 -25.957031 5.046875 -26.695312 5.328125 -27.4375 C 5.609375 -28.175781 5.878906 -28.914062 6.140625 -29.65625 C 6.203125 -29.875 6.226562 -30.113281 6.21875 -30.375 C 6.21875 -30.644531 6.019531 -31.054688 5.625 -31.609375 L 5.484375 -31.71875 L 5.359375 -31.703125 C 4.441406 -31.609375 3.507812 -31.507812 2.5625 -31.40625 C 1.613281 -31.3125 0.664062 -31.210938 -0.28125 -31.109375 C -1.238281 -31.046875 -2.203125 -30.960938 -3.171875 -30.859375 C -4.148438 -30.765625 -5.128906 -30.664062 -6.109375 -30.5625 C -9.160156 -30.238281 -11.863281 -29.910156 -14.21875 -29.578125 C -14.707031 -29.484375 -15.195312 -29.410156 -15.6875 -29.359375 C -16.175781 -29.304688 -16.671875 -29.253906 -17.171875 -29.203125 C -18.453125 -29.023438 -19.738281 -28.832031 -21.03125 -28.625 C -22.332031 -28.425781 -23.5625 -28.117188 -24.71875 -27.703125 C -25.082031 -27.585938 -25.390625 -27.515625 -25.640625 -27.484375 C -25.929688 -27.453125 -26.1875 -27.488281 -26.40625 -27.59375 C -26.539062 -27.707031 -26.664062 -27.90625 -26.78125 -28.1875 C -26.90625 -28.539062 -26.738281 -28.742188 -26.28125 -28.796875 C -26.195312 -28.804688 -26.03125 -28.8125 -25.78125 -28.8125 C -25.53125 -28.820312 -25.40625 -28.828125 -25.40625 -28.828125 L -25.21875 -28.84375 C -22.925781 -29.289062 -20.660156 -29.664062 -18.421875 -29.96875 C -16.179688 -30.269531 -14.171875 -30.515625 -12.390625 -30.703125 C -11.429688 -30.804688 -10.46875 -30.90625 -9.5 -31 C -8.53125 -31.101562 -7.570312 -31.207031 -6.625 -31.3125 C -5.664062 -31.363281 -4.695312 -31.441406 -3.71875 -31.546875 C -2.75 -31.648438 -1.796875 -31.753906 -0.859375 -31.859375 C 0.0546875 -31.953125 0.96875 -32.046875 1.875 -32.140625 C 2.789062 -32.234375 3.691406 -32.351562 4.578125 -32.5 C 5.453125 -32.625 6.210938 -32.851562 6.859375 -33.1875 C 7.515625 -33.53125 8.007812 -34.140625 8.34375 -35.015625 C 9.6875 -38.835938 11.707031 -42.5625 14.40625 -46.1875 C 14.445312 -46.269531 14.519531 -46.382812 14.625 -46.53125 C 14.738281 -46.707031 14.859375 -46.882812 14.984375 -47.0625 C 15.109375 -47.25 15.273438 -47.351562 15.484375 -47.375 C 15.691406 -47.394531 15.957031 -47.296875 16.28125 -47.078125 C 16.664062 -46.785156 16.835938 -46.46875 16.796875 -46.125 C 16.753906 -45.789062 16.632812 -45.425781 16.4375 -45.03125 C 16.144531 -44.53125 15.875 -44.054688 15.625 -43.609375 C 15.382812 -43.160156 15.132812 -42.742188 14.875 -42.359375 C 14.101562 -41.015625 13.332031 -39.625 12.5625 -38.1875 C 11.800781 -36.757812 11.113281 -35.195312 10.5 -33.5 L 10.34375 -33.171875 L 15.859375 -33.75 C 20.242188 -34.207031 25.234375 -34.398438 30.828125 -34.328125 C 30.910156 -34.335938 31.054688 -34.351562 31.265625 -34.375 C 31.472656 -34.394531 31.691406 -34.394531 31.921875 -34.375 C 32.148438 -34.363281 32.347656 -34.300781 32.515625 -34.1875 Z M 32.515625 -34.1875 "/></g></g></g></g></g></svg>