<svg xmlns="http://www.w3.org/2000/svg" xmlns:xlink="http://www.w3.org/1999/xlink" width="978" zoomAndPan="magnify" viewBox="0 0 733.5 192.749996" height="257" preserveAspectRatio="xMidYMid meet" version="1.0"><defs><g/><clipPath id="e02849aa85"><path d="M 431 18 L 631.503906 18 L 631.503906 119 L 431 119 Z M 431 18 " clip-rule="nonzero"/></clipPath><clipPath id="530dc5e428"><rect x="0" width="201" y="0" height="101"/></clipPath><clipPath id="77f3f15c6d"><rect x="0" width="632" y="0" height="140"/></clipPath></defs><g transform="matrix(1, 0, 0, 1, 48, 26)"><g clip-path="url(#77f3f15c6d)"><g fill="#000000" fill-opacity="1"><g transform="translate(0.521669, 112.167905)"><g><path d="M 63.703125 -73.328125 L 63.703125 -71.265625 C 61.554688 -70.984375 59.484375 -70.289062 57.484375 -69.1875 C 55.484375 -68.082031 53.484375 -66.253906 51.484375 -63.703125 L 31.484375 -38.109375 L 33.765625 -43.1875 L 58.625 -8.390625 C 59.800781 -6.660156 61.078125 -5.3125 62.453125 -4.34375 C 63.835938 -3.382812 65.597656 -2.628906 67.734375 -2.078125 L 67.734375 0 C 66.078125 -0.132812 64.023438 -0.21875 61.578125 -0.25 C 59.128906 -0.289062 57.039062 -0.3125 55.3125 -0.3125 C 54.132812 -0.3125 52.695312 -0.289062 51 -0.25 C 49.3125 -0.21875 47.191406 -0.132812 44.640625 0 L 44.640625 -2.078125 C 46.984375 -2.210938 48.46875 -2.625 49.09375 -3.3125 C 49.71875 -4 49.476562 -5.140625 48.375 -6.734375 L 33.25 -29.515625 C 31.863281 -31.660156 30.632812 -33.265625 29.5625 -34.328125 C 28.5 -35.398438 27.394531 -36.109375 26.25 -36.453125 C 25.113281 -36.804688 23.679688 -37.015625 21.953125 -37.078125 L 21.953125 -39.15625 C 24.859375 -39.21875 27.296875 -39.785156 29.265625 -40.859375 C 31.234375 -41.929688 32.875 -43.296875 34.1875 -44.953125 L 44.125 -57.59375 C 46.40625 -60.488281 47.957031 -62.9375 48.78125 -64.9375 C 49.613281 -66.945312 49.578125 -68.484375 48.671875 -69.546875 C 47.773438 -70.617188 45.878906 -71.191406 42.984375 -71.265625 L 42.984375 -73.328125 C 44.296875 -73.265625 45.640625 -73.210938 47.015625 -73.171875 C 48.398438 -73.140625 49.765625 -73.101562 51.109375 -73.0625 C 52.460938 -73.03125 53.722656 -73.015625 54.890625 -73.015625 C 56.691406 -73.015625 58.347656 -73.050781 59.859375 -73.125 C 61.378906 -73.195312 62.660156 -73.265625 63.703125 -73.328125 Z M 30.765625 -73.328125 L 30.765625 -71.265625 C 28.410156 -71.191406 26.628906 -70.929688 25.421875 -70.484375 C 24.210938 -70.035156 23.398438 -69.207031 22.984375 -68 C 22.578125 -66.789062 22.375 -64.910156 22.375 -62.359375 L 22.375 -10.984375 C 22.375 -8.492188 22.578125 -6.625 22.984375 -5.375 C 23.398438 -4.132812 24.210938 -3.304688 25.421875 -2.890625 C 26.628906 -2.484375 28.410156 -2.210938 30.765625 -2.078125 L 30.765625 0 C 29.171875 -0.132812 27.179688 -0.21875 24.796875 -0.25 C 22.421875 -0.289062 20.023438 -0.3125 17.609375 -0.3125 C 14.910156 -0.3125 12.390625 -0.289062 10.046875 -0.25 C 7.703125 -0.21875 5.800781 -0.132812 4.34375 0 L 4.34375 -2.078125 C 6.695312 -2.210938 8.476562 -2.484375 9.6875 -2.890625 C 10.894531 -3.304688 11.703125 -4.132812 12.109375 -5.375 C 12.523438 -6.625 12.734375 -8.492188 12.734375 -10.984375 L 12.734375 -62.359375 C 12.734375 -64.910156 12.523438 -66.789062 12.109375 -68 C 11.703125 -69.207031 10.894531 -70.035156 9.6875 -70.484375 C 8.476562 -70.929688 6.695312 -71.191406 4.34375 -71.265625 L 4.34375 -73.328125 C 5.800781 -73.265625 7.703125 -73.195312 10.046875 -73.125 C 12.390625 -73.050781 14.910156 -73.015625 17.609375 -73.015625 C 20.023438 -73.015625 22.421875 -73.050781 24.796875 -73.125 C 27.179688 -73.195312 29.171875 -73.265625 30.765625 -73.328125 Z M 30.765625 -73.328125 "/></g></g></g><g fill="#000000" fill-opacity="1"><g transform="translate(59.147368, 112.167905)"><g><path d="M 14.8125 -79.234375 C 16.613281 -79.234375 18.171875 -78.578125 19.484375 -77.265625 C 20.796875 -75.953125 21.453125 -74.398438 21.453125 -72.609375 C 21.453125 -70.816406 20.796875 -69.265625 19.484375 -67.953125 C 18.171875 -66.640625 16.613281 -65.984375 14.8125 -65.984375 C 13.019531 -65.984375 11.46875 -66.640625 10.15625 -67.953125 C 8.84375 -69.265625 8.1875 -70.816406 8.1875 -72.609375 C 8.1875 -74.398438 8.84375 -75.953125 10.15625 -77.265625 C 11.46875 -78.578125 13.019531 -79.234375 14.8125 -79.234375 Z M 20.203125 -54.484375 L 20.203125 -9.625 C 20.203125 -6.726562 20.804688 -4.757812 22.015625 -3.71875 C 23.222656 -2.6875 25.238281 -2.171875 28.0625 -2.171875 L 28.0625 0 C 26.894531 -0.0703125 25.117188 -0.160156 22.734375 -0.265625 C 20.347656 -0.367188 17.945312 -0.421875 15.53125 -0.421875 C 13.1875 -0.421875 10.804688 -0.367188 8.390625 -0.265625 C 5.972656 -0.160156 4.175781 -0.0703125 3 0 L 3 -2.171875 C 5.832031 -2.171875 7.851562 -2.6875 9.0625 -3.71875 C 10.269531 -4.757812 10.875 -6.726562 10.875 -9.625 L 10.875 -42.046875 C 10.875 -45.160156 10.320312 -47.457031 9.21875 -48.9375 C 8.113281 -50.425781 6.039062 -51.171875 3 -51.171875 L 3 -53.34375 C 5.207031 -53.132812 7.347656 -53.03125 9.421875 -53.03125 C 11.421875 -53.03125 13.335938 -53.148438 15.171875 -53.390625 C 17.003906 -53.628906 18.679688 -53.992188 20.203125 -54.484375 Z M 20.203125 -54.484375 "/></g></g></g><g fill="#000000" fill-opacity="1"><g transform="translate(80.277485, 112.167905)"><g><path d="M 28.890625 -54.796875 C 31.109375 -54.796875 33.25 -54.519531 35.3125 -53.96875 C 37.382812 -53.414062 39.25 -52.585938 40.90625 -51.484375 C 42.5 -50.441406 43.707031 -49.25 44.53125 -47.90625 C 45.363281 -46.5625 45.78125 -45.09375 45.78125 -43.5 C 45.78125 -41.632812 45.257812 -40.203125 44.21875 -39.203125 C 43.1875 -38.203125 41.878906 -37.703125 40.296875 -37.703125 C 38.773438 -37.703125 37.441406 -38.148438 36.296875 -39.046875 C 35.160156 -39.941406 34.59375 -41.21875 34.59375 -42.875 C 34.59375 -44.46875 35.023438 -45.742188 35.890625 -46.703125 C 36.753906 -47.671875 37.773438 -48.296875 38.953125 -48.578125 C 38.253906 -49.816406 37.023438 -50.847656 35.265625 -51.671875 C 33.503906 -52.503906 31.625 -52.921875 29.625 -52.921875 C 27.894531 -52.921875 26.164062 -52.503906 24.4375 -51.671875 C 22.71875 -50.847656 21.128906 -49.488281 19.671875 -47.59375 C 18.222656 -45.695312 17.050781 -43.109375 16.15625 -39.828125 C 15.257812 -36.546875 14.8125 -32.453125 14.8125 -27.546875 C 14.8125 -21.472656 15.5 -16.640625 16.875 -13.046875 C 18.257812 -9.460938 20.070312 -6.890625 22.3125 -5.328125 C 24.5625 -3.773438 27.035156 -3 29.734375 -3 C 31.523438 -3 33.351562 -3.34375 35.21875 -4.03125 C 37.082031 -4.726562 38.84375 -5.851562 40.5 -7.40625 C 42.15625 -8.957031 43.570312 -11.046875 44.75 -13.671875 L 46.71875 -12.953125 C 46.019531 -10.734375 44.875 -8.503906 43.28125 -6.265625 C 41.695312 -4.023438 39.628906 -2.175781 37.078125 -0.71875 C 34.523438 0.726562 31.382812 1.453125 27.65625 1.453125 C 23.375 1.453125 19.503906 0.347656 16.046875 -1.859375 C 12.597656 -4.066406 9.851562 -7.222656 7.8125 -11.328125 C 5.78125 -15.441406 4.765625 -20.332031 4.765625 -26 C 4.765625 -31.65625 5.78125 -36.640625 7.8125 -40.953125 C 9.851562 -45.273438 12.703125 -48.660156 16.359375 -51.109375 C 20.023438 -53.566406 24.203125 -54.796875 28.890625 -54.796875 Z M 28.890625 -54.796875 "/></g></g></g><g fill="#000000" fill-opacity="1"><g transform="translate(121.398332, 112.167905)"><g><path d="M 19.265625 -81.203125 L 19.265625 -9.625 C 19.265625 -6.726562 19.78125 -4.757812 20.8125 -3.71875 C 21.851562 -2.6875 23.617188 -2.171875 26.109375 -2.171875 L 26.109375 0 C 24.992188 -0.0703125 23.347656 -0.160156 21.171875 -0.265625 C 19.003906 -0.367188 16.816406 -0.421875 14.609375 -0.421875 C 12.253906 -0.421875 9.867188 -0.367188 7.453125 -0.265625 C 5.035156 -0.160156 3.242188 -0.0703125 2.078125 0 L 2.078125 -2.171875 C 4.898438 -2.171875 6.914062 -2.6875 8.125 -3.71875 C 9.332031 -4.757812 9.9375 -6.726562 9.9375 -9.625 L 9.9375 -68.78125 C 9.9375 -71.882812 9.382812 -74.175781 8.28125 -75.65625 C 7.175781 -77.144531 5.109375 -77.890625 2.078125 -77.890625 L 2.078125 -80.0625 C 4.285156 -79.851562 6.425781 -79.75 8.5 -79.75 C 10.5 -79.75 12.410156 -79.867188 14.234375 -80.109375 C 16.066406 -80.359375 17.742188 -80.722656 19.265625 -81.203125 Z M 52.203125 -53.34375 L 52.203125 -51.265625 C 50.472656 -51.128906 48.847656 -50.664062 47.328125 -49.875 C 45.816406 -49.082031 44.332031 -47.925781 42.875 -46.40625 L 28.28125 -31.078125 L 29.734375 -33.96875 L 49 -7.5625 C 50.164062 -5.96875 51.285156 -4.722656 52.359375 -3.828125 C 53.429688 -2.929688 54.726562 -2.378906 56.25 -2.171875 L 56.25 0 C 55.488281 -0.0703125 54.296875 -0.160156 52.671875 -0.265625 C 51.046875 -0.367188 49.441406 -0.421875 47.859375 -0.421875 C 45.710938 -0.421875 43.535156 -0.367188 41.328125 -0.265625 C 39.117188 -0.160156 37.460938 -0.0703125 36.359375 0 L 36.359375 -2.171875 C 37.734375 -2.171875 38.695312 -2.515625 39.25 -3.203125 C 39.800781 -3.898438 39.703125 -4.734375 38.953125 -5.703125 L 27.03125 -23.09375 C 25.71875 -24.957031 24.523438 -26.164062 23.453125 -26.71875 C 22.390625 -27.269531 20.851562 -27.582031 18.84375 -27.65625 L 18.84375 -29.734375 C 21.0625 -30.003906 22.859375 -30.46875 24.234375 -31.125 C 25.617188 -31.78125 26.929688 -32.765625 28.171875 -34.078125 L 35.84375 -42.046875 C 38.050781 -44.328125 39.15625 -46.140625 39.15625 -47.484375 C 39.15625 -48.835938 38.445312 -49.804688 37.03125 -50.390625 C 35.613281 -50.972656 33.765625 -51.265625 31.484375 -51.265625 L 31.484375 -53.34375 C 33.285156 -53.269531 35.304688 -53.179688 37.546875 -53.078125 C 39.785156 -52.972656 41.664062 -52.921875 43.1875 -52.921875 C 44.363281 -52.921875 45.503906 -52.9375 46.609375 -52.96875 C 47.710938 -53.007812 48.75 -53.0625 49.71875 -53.125 C 50.6875 -53.195312 51.515625 -53.269531 52.203125 -53.34375 Z M 52.203125 -53.34375 "/></g></g></g><g fill="#000000" fill-opacity="1"><g transform="translate(169.148233, 112.167905)"><g><path d="M 37.8125 -54.796875 C 40.425781 -54.796875 42.613281 -54.445312 44.375 -53.75 C 46.144531 -53.0625 47.613281 -52.097656 48.78125 -50.859375 C 50.09375 -49.472656 51.023438 -47.742188 51.578125 -45.671875 C 52.128906 -43.609375 52.40625 -40.8125 52.40625 -37.28125 L 52.40625 -9.625 C 52.40625 -6.726562 53.007812 -4.757812 54.21875 -3.71875 C 55.425781 -2.6875 57.445312 -2.171875 60.28125 -2.171875 L 60.28125 0 C 59.101562 -0.0703125 57.304688 -0.160156 54.890625 -0.265625 C 52.472656 -0.367188 50.128906 -0.421875 47.859375 -0.421875 C 45.578125 -0.421875 43.347656 -0.367188 41.171875 -0.265625 C 38.992188 -0.160156 37.351562 -0.0703125 36.25 0 L 36.25 -2.171875 C 38.738281 -2.171875 40.5 -2.6875 41.53125 -3.71875 C 42.570312 -4.757812 43.09375 -6.726562 43.09375 -9.625 L 43.09375 -39.5625 C 43.09375 -41.707031 42.914062 -43.675781 42.5625 -45.46875 C 42.21875 -47.257812 41.441406 -48.707031 40.234375 -49.8125 C 39.023438 -50.925781 37.179688 -51.484375 34.703125 -51.484375 C 31.796875 -51.484375 29.253906 -50.648438 27.078125 -48.984375 C 24.910156 -47.328125 23.222656 -45.066406 22.015625 -42.203125 C 20.804688 -39.335938 20.203125 -36.144531 20.203125 -32.625 L 20.203125 -9.625 C 20.203125 -6.726562 20.71875 -4.757812 21.75 -3.71875 C 22.789062 -2.6875 24.550781 -2.171875 27.03125 -2.171875 L 27.03125 0 C 25.925781 -0.0703125 24.285156 -0.160156 22.109375 -0.265625 C 19.929688 -0.367188 17.707031 -0.421875 15.4375 -0.421875 C 13.15625 -0.421875 10.804688 -0.367188 8.390625 -0.265625 C 5.972656 -0.160156 4.175781 -0.0703125 3 0 L 3 -2.171875 C 5.832031 -2.171875 7.851562 -2.6875 9.0625 -3.71875 C 10.269531 -4.757812 10.875 -6.726562 10.875 -9.625 L 10.875 -42.046875 C 10.875 -45.160156 10.320312 -47.457031 9.21875 -48.9375 C 8.113281 -50.425781 6.039062 -51.171875 3 -51.171875 L 3 -53.34375 C 5.207031 -53.132812 7.347656 -53.03125 9.421875 -53.03125 C 11.421875 -53.03125 13.335938 -53.148438 15.171875 -53.390625 C 17.003906 -53.628906 18.679688 -53.992188 20.203125 -54.484375 L 20.203125 -42.265625 C 21.992188 -46.953125 24.492188 -50.210938 27.703125 -52.046875 C 30.921875 -53.878906 34.289062 -54.796875 37.8125 -54.796875 Z M 37.8125 -54.796875 "/></g></g></g><g fill="#000000" fill-opacity="1"><g transform="translate(219.48762, 112.167905)"><g><path d="M 12.21875 -74.78125 C 13.738281 -74.78125 14.984375 -74.46875 15.953125 -73.84375 C 16.921875 -73.21875 17.710938 -72.425781 18.328125 -71.46875 C 19.085938 -70.363281 19.570312 -69.15625 19.78125 -67.84375 C 19.988281 -66.53125 20.09375 -65.457031 20.09375 -64.625 C 20.09375 -61.238281 19.226562 -58.164062 17.5 -55.40625 C 15.78125 -52.644531 13.085938 -50.398438 9.421875 -48.671875 L 8.5 -50.546875 C 10.632812 -51.441406 12.476562 -52.851562 14.03125 -54.78125 C 15.582031 -56.71875 16.359375 -58.6875 16.359375 -60.6875 C 16.359375 -61.519531 16.257812 -62.242188 16.0625 -62.859375 C 14.945312 -61.960938 13.664062 -61.515625 12.21875 -61.515625 C 10.425781 -61.515625 8.875 -62.101562 7.5625 -63.28125 C 6.25 -64.457031 5.59375 -66.078125 5.59375 -68.140625 C 5.59375 -70.078125 6.25 -71.664062 7.5625 -72.90625 C 8.875 -74.15625 10.425781 -74.78125 12.21875 -74.78125 Z M 12.21875 -74.78125 "/></g></g></g><g fill="#000000" fill-opacity="1"><g transform="translate(233.574364, 112.167905)"><g/></g></g><g fill="#000000" fill-opacity="1"><g transform="translate(250.147005, 112.167905)"><g><path d="M 14.8125 -79.234375 C 16.613281 -79.234375 18.171875 -78.578125 19.484375 -77.265625 C 20.796875 -75.953125 21.453125 -74.398438 21.453125 -72.609375 C 21.453125 -70.816406 20.796875 -69.265625 19.484375 -67.953125 C 18.171875 -66.640625 16.613281 -65.984375 14.8125 -65.984375 C 13.019531 -65.984375 11.46875 -66.640625 10.15625 -67.953125 C 8.84375 -69.265625 8.1875 -70.816406 8.1875 -72.609375 C 8.1875 -74.398438 8.84375 -75.953125 10.15625 -77.265625 C 11.46875 -78.578125 13.019531 -79.234375 14.8125 -79.234375 Z M 20.203125 -54.484375 L 20.203125 -9.625 C 20.203125 -6.726562 20.804688 -4.757812 22.015625 -3.71875 C 23.222656 -2.6875 25.238281 -2.171875 28.0625 -2.171875 L 28.0625 0 C 26.894531 -0.0703125 25.117188 -0.160156 22.734375 -0.265625 C 20.347656 -0.367188 17.945312 -0.421875 15.53125 -0.421875 C 13.1875 -0.421875 10.804688 -0.367188 8.390625 -0.265625 C 5.972656 -0.160156 4.175781 -0.0703125 3 0 L 3 -2.171875 C 5.832031 -2.171875 7.851562 -2.6875 9.0625 -3.71875 C 10.269531 -4.757812 10.875 -6.726562 10.875 -9.625 L 10.875 -42.046875 C 10.875 -45.160156 10.320312 -47.457031 9.21875 -48.9375 C 8.113281 -50.425781 6.039062 -51.171875 3 -51.171875 L 3 -53.34375 C 5.207031 -53.132812 7.347656 -53.03125 9.421875 -53.03125 C 11.421875 -53.03125 13.335938 -53.148438 15.171875 -53.390625 C 17.003906 -53.628906 18.679688 -53.992188 20.203125 -54.484375 Z M 20.203125 -54.484375 "/></g></g></g><g fill="#000000" fill-opacity="1"><g transform="translate(271.277122, 112.167905)"><g><path d="M 19.6875 -70.53125 L 19.6875 -53.234375 L 35.015625 -53.234375 L 35.015625 -51.171875 L 19.6875 -51.171875 L 19.6875 -11.078125 C 19.6875 -7.835938 20.269531 -5.5625 21.4375 -4.25 C 22.613281 -2.9375 24.238281 -2.28125 26.3125 -2.28125 C 28.382812 -2.28125 30.175781 -3.125 31.6875 -4.8125 C 33.207031 -6.507812 34.519531 -9.359375 35.625 -13.359375 L 37.703125 -12.84375 C 37.015625 -8.84375 35.648438 -5.457031 33.609375 -2.6875 C 31.578125 0.0703125 28.453125 1.453125 24.234375 1.453125 C 21.890625 1.453125 19.957031 1.15625 18.4375 0.5625 C 16.914062 -0.0195312 15.566406 -0.863281 14.390625 -1.96875 C 12.878906 -3.550781 11.828125 -5.445312 11.234375 -7.65625 C 10.648438 -9.875 10.359375 -12.8125 10.359375 -16.46875 L 10.359375 -51.171875 L 0.421875 -51.171875 L 0.421875 -53.234375 L 10.359375 -53.234375 L 10.359375 -69.09375 C 12.085938 -69.15625 13.742188 -69.289062 15.328125 -69.5 C 16.921875 -69.707031 18.375 -70.050781 19.6875 -70.53125 Z M 19.6875 -70.53125 "/></g></g></g><g fill="#000000" fill-opacity="1"><g transform="translate(296.979482, 112.167905)"><g/></g></g><g fill="#000000" fill-opacity="1"><g transform="translate(313.552123, 112.167905)"><g/></g></g><g fill="#000000" fill-opacity="1"><g transform="translate(327.442909, 112.167905)"><g><path d="M 22.578125 -53.34375 L 22.578125 -51.171875 C 20.847656 -51.171875 19.328125 -51.046875 18.015625 -50.796875 C 16.703125 -50.554688 15.835938 -49.847656 15.421875 -48.671875 C 15.015625 -47.503906 15.328125 -45.4375 16.359375 -42.46875 L 27.140625 -11.59375 L 26.40625 -11.703125 L 41.640625 -53.75 L 43.703125 -52.921875 L 24.75 0.515625 C 24.476562 0.515625 24.203125 0.515625 23.921875 0.515625 C 23.648438 0.515625 23.34375 0.515625 23 0.515625 L 6 -45.375 C 4.894531 -48.132812 3.804688 -49.789062 2.734375 -50.34375 C 1.671875 -50.894531 0.757812 -51.171875 0 -51.171875 L 0 -53.34375 C 1.382812 -53.132812 2.816406 -52.976562 4.296875 -52.875 C 5.785156 -52.769531 7.390625 -52.71875 9.109375 -52.71875 C 11.253906 -52.71875 13.515625 -52.785156 15.890625 -52.921875 C 18.273438 -53.066406 20.503906 -53.207031 22.578125 -53.34375 Z M 79.4375 -53.34375 L 79.4375 -51.265625 C 78.125 -51.128906 76.898438 -50.5625 75.765625 -49.5625 C 74.628906 -48.5625 73.613281 -46.710938 72.71875 -44.015625 L 57.6875 0.515625 C 57.414062 0.515625 57.140625 0.515625 56.859375 0.515625 C 56.585938 0.515625 56.28125 0.515625 55.9375 0.515625 L 39.25 -41.84375 L 41.640625 -53.75 C 42.054688 -53.75 42.453125 -53.75 42.828125 -53.75 C 43.210938 -53.75 43.609375 -53.75 44.015625 -53.75 L 60.171875 -10.984375 L 59.34375 -10.359375 L 69.609375 -41.53125 C 70.367188 -43.882812 70.660156 -45.734375 70.484375 -47.078125 C 70.304688 -48.421875 69.613281 -49.421875 68.40625 -50.078125 C 67.195312 -50.734375 65.351562 -51.128906 62.875 -51.265625 L 62.875 -53.34375 C 64.113281 -53.269531 65.179688 -53.21875 66.078125 -53.1875 C 66.972656 -53.15625 67.851562 -53.117188 68.71875 -53.078125 C 69.582031 -53.046875 70.535156 -53.03125 71.578125 -53.03125 C 73.160156 -53.03125 74.585938 -53.0625 75.859375 -53.125 C 77.140625 -53.195312 78.332031 -53.269531 79.4375 -53.34375 Z M 79.4375 -53.34375 "/></g></g></g><g fill="#000000" fill-opacity="1"><g transform="translate(396.012178, 112.167905)"><g><path d="M 35.109375 -74.78125 L 6.9375 1.453125 L 3.515625 1.453125 L 31.6875 -74.78125 Z M 35.109375 -74.78125 "/></g></g></g><g clip-path="url(#e02849aa85)"><g transform="matrix(1, 0, 0, 1, 431, 18)"><g clip-path="url(#530dc5e428)"><g fill="#000000" fill-opacity="1"><g transform="translate(1.458127, 68.820098)"><g><path d="M 4.8125 29.640625 C 4.570312 29.640625 4.3125 29.570312 4.03125 29.4375 C 3.789062 29.289062 3.625 29.125 3.53125 28.9375 C 3.34375 28.601562 3.332031 28.203125 3.5 27.734375 C 3.664062 27.265625 3.84375 26.816406 4.03125 26.390625 C 4.125 26.203125 4.207031 26.023438 4.28125 25.859375 C 4.351562 25.691406 4.4375 25.515625 4.53125 25.328125 C 7.125 17.171875 10.445312 8.539062 14.5 -0.5625 C 14.875 -1.414062 15.0625 -2.195312 15.0625 -2.90625 C 15.0625 -3.613281 14.519531 -4.507812 13.4375 -5.59375 C 11.832031 -7.144531 10.960938 -8.601562 10.828125 -9.96875 C 10.679688 -11.476562 11.34375 -12.875 12.8125 -14.15625 C 14.414062 -15.519531 15.992188 -16.53125 17.546875 -17.1875 C 19.710938 -18.132812 21.617188 -19.421875 23.265625 -21.046875 C 24.921875 -22.671875 26.484375 -24.851562 27.953125 -27.59375 C 30.398438 -32.164062 32.921875 -36.71875 35.515625 -41.25 C 38.109375 -45.78125 40.679688 -50.238281 43.234375 -54.625 C 44.171875 -56.269531 45.109375 -57.90625 46.046875 -59.53125 C 46.992188 -61.164062 47.941406 -62.78125 48.890625 -64.375 C 49.078125 -64.757812 49.285156 -65.128906 49.515625 -65.484375 C 49.753906 -65.835938 50.015625 -66.128906 50.296875 -66.359375 C 50.628906 -66.597656 50.984375 -66.71875 51.359375 -66.71875 C 51.785156 -66.71875 52.234375 -66.53125 52.703125 -66.15625 C 53.316406 -65.632812 53.460938 -64.972656 53.140625 -64.171875 C 52.660156 -63.085938 52.113281 -62.070312 51.5 -61.125 C 48.675781 -56.789062 45.953125 -52.347656 43.328125 -47.796875 C 40.710938 -43.242188 38.132812 -38.726562 35.59375 -34.25 C 34.925781 -33.0625 34.257812 -31.863281 33.59375 -30.65625 C 32.9375 -29.457031 32.253906 -28.269531 31.546875 -27.09375 C 31.453125 -26.957031 31.335938 -26.628906 31.203125 -26.109375 C 31.148438 -25.960938 31.039062 -25.609375 30.875 -25.046875 C 30.71875 -24.484375 30.640625 -24.203125 30.640625 -24.203125 L 31.265625 -24.546875 C 36.078125 -27.003906 40.796875 -29.351562 45.421875 -31.59375 C 50.046875 -33.832031 54.738281 -35.914062 59.5 -37.84375 C 59.832031 -37.988281 60.160156 -38.128906 60.484375 -38.265625 C 60.816406 -38.410156 61.148438 -38.554688 61.484375 -38.703125 C 63.273438 -39.453125 65.125 -40.15625 67.03125 -40.8125 C 68.945312 -41.476562 70.988281 -41.835938 73.15625 -41.890625 C 73.90625 -41.890625 74.515625 -41.789062 74.984375 -41.59375 C 75.460938 -41.40625 75.84375 -41.03125 76.125 -40.46875 C 76.3125 -40.039062 76.332031 -39.613281 76.1875 -39.1875 C 76.050781 -38.769531 75.84375 -38.421875 75.5625 -38.140625 C 75.375 -37.992188 75.1875 -37.921875 75 -37.921875 C 74.8125 -37.921875 74.609375 -37.976562 74.390625 -38.09375 C 74.179688 -38.21875 73.957031 -38.347656 73.71875 -38.484375 C 73.382812 -38.671875 73.050781 -38.859375 72.71875 -39.046875 C 72.394531 -39.242188 72.066406 -39.34375 71.734375 -39.34375 C 71.546875 -39.34375 71.359375 -39.296875 71.171875 -39.203125 C 70.941406 -39.148438 70.726562 -39.050781 70.53125 -38.90625 C 70.34375 -38.769531 70.15625 -38.628906 69.96875 -38.484375 C 69.832031 -38.390625 69.679688 -38.285156 69.515625 -38.171875 C 69.347656 -38.054688 69.171875 -37.945312 68.984375 -37.84375 C 62.847656 -35.539062 56.851562 -32.960938 51 -30.109375 C 45.15625 -27.253906 39.425781 -24.363281 33.8125 -21.4375 L 27.8125 -18.328125 C 27.195312 -18.046875 26.710938 -17.664062 26.359375 -17.1875 C 26.003906 -16.71875 25.707031 -16.222656 25.46875 -15.703125 C 24.945312 -14.671875 24.414062 -13.625 23.875 -12.5625 C 23.332031 -11.5 22.800781 -10.445312 22.28125 -9.40625 C 21.4375 -7.613281 20.820312 -6.195312 20.4375 -5.15625 C 20.0625 -4.125 20.039062 -3.179688 20.375 -2.328125 C 20.707031 -1.523438 21.460938 -0.703125 22.640625 0.140625 C 23.816406 0.992188 25.539062 2.101562 27.8125 3.46875 C 29.175781 4.3125 31.164062 5.40625 33.78125 6.75 C 36.394531 8.09375 39.390625 9.585938 42.765625 11.234375 C 46.140625 12.890625 49.65625 14.59375 53.3125 16.34375 C 56.96875 18.09375 60.5625 19.78125 64.09375 21.40625 C 67.632812 23.03125 70.851562 24.488281 73.75 25.78125 C 76.65625 27.082031 79.03125 28.085938 80.875 28.796875 C 82.28125 29.410156 83.132812 29.867188 83.4375 30.171875 C 83.75 30.484375 83.90625 30.6875 83.90625 30.78125 C 83.863281 30.914062 83.722656 30.984375 83.484375 30.984375 C 83.015625 30.984375 82.363281 30.816406 81.53125 30.484375 C 80.707031 30.160156 80.035156 29.878906 79.515625 29.640625 C 79.234375 29.503906 79.046875 29.4375 78.953125 29.4375 C 76.078125 28.300781 72.660156 26.835938 68.703125 25.046875 C 67.617188 24.578125 65.96875 23.8125 63.75 22.75 C 61.53125 21.6875 58.96875 20.46875 56.0625 19.09375 C 53.164062 17.726562 50.160156 16.289062 47.046875 14.78125 C 43.929688 13.269531 40.945312 11.804688 38.09375 10.390625 C 35.238281 8.984375 32.726562 7.710938 30.5625 6.578125 C 28.394531 5.441406 26.835938 4.570312 25.890625 3.96875 C 24.472656 3.070312 23.082031 2.125 21.71875 1.125 C 20.488281 0.28125 19.546875 -0.140625 18.890625 -0.140625 C 18.421875 -0.140625 18.039062 0.046875 17.75 0.421875 C 17.46875 0.796875 17.210938 1.289062 16.984375 1.90625 C 15.285156 6.101562 13.585938 10.265625 11.890625 14.390625 C 10.191406 18.523438 8.539062 22.523438 6.9375 26.390625 C 6.882812 26.535156 6.789062 26.796875 6.65625 27.171875 C 6.46875 27.734375 6.226562 28.285156 5.9375 28.828125 C 5.65625 29.367188 5.28125 29.640625 4.8125 29.640625 Z M 20.234375 -14.296875 L 19.671875 -14.015625 C 17.691406 -13.066406 16.253906 -12.285156 15.359375 -11.671875 C 14.460938 -11.054688 13.960938 -10.394531 13.859375 -9.6875 C 13.859375 -9.125 14.046875 -8.535156 14.421875 -7.921875 C 14.804688 -7.304688 15.328125 -6.550781 15.984375 -5.65625 L 16.265625 -5.375 L 16.484375 -5.65625 C 17.234375 -6.925781 17.914062 -8.1875 18.53125 -9.4375 C 19.144531 -10.6875 19.664062 -12.066406 20.09375 -13.578125 Z M 20.234375 -14.296875 "/></g></g></g><g fill="#000000" fill-opacity="1"><g transform="translate(50.547459, 68.820098)"><g><path d="M 24.203125 -10.46875 C 24.523438 -10.65625 24.898438 -10.75 25.328125 -10.75 C 25.378906 -10.519531 25.285156 -10.296875 25.046875 -10.078125 C 24.804688 -9.867188 24.59375 -9.671875 24.40625 -9.484375 L 23.984375 -9.125 C 22.285156 -7.851562 20.5625 -6.613281 18.8125 -5.40625 C 17.070312 -4.207031 15.195312 -3.21875 13.1875 -2.4375 C 11.1875 -1.664062 8.960938 -1.28125 6.515625 -1.28125 L 6.21875 -1.28125 C 3.820312 -1.28125 1.960938 -2.007812 0.640625 -3.46875 C -0.535156 -4.832031 -0.9375 -6.484375 -0.5625 -8.421875 C 0.757812 -14.878906 4.957031 -19.050781 12.03125 -20.9375 C 12.40625 -21.03125 12.78125 -21.078125 13.15625 -21.078125 C 14.289062 -21.078125 15.210938 -20.582031 15.921875 -19.59375 C 16.484375 -18.84375 16.65625 -18.195312 16.4375 -17.65625 C 16.226562 -17.113281 15.914062 -16.554688 15.5 -15.984375 C 13.613281 -13.671875 10.5 -12.1875 6.15625 -11.53125 C 4.601562 -11.289062 3.585938 -10.675781 3.109375 -9.6875 C 2.640625 -8.695312 2.285156 -7.640625 2.046875 -6.515625 L 1.984375 -6.015625 C 1.835938 -5.347656 1.953125 -4.734375 2.328125 -4.171875 C 2.847656 -3.460938 3.675781 -2.945312 4.8125 -2.625 C 5.65625 -2.382812 6.550781 -2.265625 7.5 -2.265625 C 8.25 -2.265625 8.976562 -2.332031 9.6875 -2.46875 C 10.394531 -2.613281 11.148438 -2.804688 11.953125 -3.046875 C 14.453125 -3.753906 16.953125 -4.957031 19.453125 -6.65625 C 20.535156 -7.363281 21.617188 -8.210938 22.703125 -9.203125 C 22.804688 -9.242188 22.90625 -9.3125 23 -9.40625 C 23.09375 -9.5 23.1875 -9.59375 23.28125 -9.6875 C 23.414062 -9.832031 23.550781 -9.960938 23.6875 -10.078125 C 23.832031 -10.203125 24.003906 -10.332031 24.203125 -10.46875 Z M 7 -14.078125 L 6.515625 -13.515625 L 7.28125 -13.71875 C 8.9375 -14.101562 10.34375 -14.597656 11.5 -15.203125 C 12.65625 -15.816406 13.65625 -16.8125 14.5 -18.1875 L 14.78125 -18.75 L 14.15625 -18.53125 C 12.78125 -18.113281 11.503906 -17.582031 10.328125 -16.9375 C 9.148438 -16.300781 8.039062 -15.347656 7 -14.078125 Z M 7 -14.078125 "/></g></g></g><g fill="#000000" fill-opacity="1"><g transform="translate(74.66772, 68.820098)"><g><path d="M 24.0625 -12.515625 L 24.203125 -12.234375 C 24.203125 -12.046875 23.976562 -11.90625 23.53125 -11.8125 C 23.082031 -11.71875 22.710938 -11.648438 22.421875 -11.609375 C 22.140625 -11.554688 21.976562 -11.53125 21.9375 -11.53125 C 21.269531 -11.34375 20.609375 -11.164062 19.953125 -11 C 19.296875 -10.832031 18.632812 -10.632812 17.96875 -10.40625 C 15.46875 -9.644531 13.320312 -8.816406 11.53125 -7.921875 C 10.164062 -7.210938 8.890625 -6.382812 7.703125 -5.4375 C 6.523438 -4.5 5.773438 -3.0625 5.453125 -1.125 C 4.785156 2.40625 2.6875 5.703125 -0.84375 8.765625 C -2.21875 9.953125 -3.609375 10.546875 -5.015625 10.546875 C -6.015625 10.546875 -6.863281 10.238281 -7.5625 9.625 C -8.507812 8.820312 -8.984375 7.757812 -8.984375 6.4375 C -8.984375 5.113281 -8.488281 3.863281 -7.5 2.6875 C -6.269531 1.132812 -4.816406 -0.207031 -3.140625 -1.34375 C -1.472656 -2.476562 0.234375 -3.492188 1.984375 -4.390625 C 3.066406 -4.953125 3.65625 -5.632812 3.75 -6.4375 C 3.84375 -7.238281 3.46875 -8.273438 2.625 -9.546875 C 2.289062 -9.972656 1.984375 -10.410156 1.703125 -10.859375 C 1.421875 -11.304688 1.132812 -11.765625 0.84375 -12.234375 L 0.359375 -13.09375 C -0.734375 -14.832031 -0.734375 -16.242188 0.359375 -17.328125 C 3.984375 -21.015625 8.535156 -23.019531 14.015625 -23.34375 L 14.359375 -23.34375 C 15.585938 -23.34375 16.53125 -22.96875 17.1875 -22.21875 C 17.894531 -21.414062 18.109375 -20.332031 17.828125 -18.96875 C 17.492188 -17.550781 16.625 -16.320312 15.21875 -15.28125 C 15.113281 -15.1875 14.976562 -15.09375 14.8125 -15 C 14.65625 -14.90625 14.484375 -14.859375 14.296875 -14.859375 C 14.109375 -14.859375 13.894531 -14.953125 13.65625 -15.140625 C 13.375 -15.328125 13.253906 -15.535156 13.296875 -15.765625 C 13.347656 -16.003906 13.441406 -16.289062 13.578125 -16.625 C 13.867188 -17.144531 14.140625 -17.648438 14.390625 -18.140625 C 14.648438 -18.640625 14.925781 -19.125 15.21875 -19.59375 C 15.351562 -19.875 15.457031 -20.15625 15.53125 -20.4375 C 15.601562 -20.726562 15.519531 -21.0625 15.28125 -21.4375 C 15 -21.863281 14.597656 -22.078125 14.078125 -22.078125 C 13.984375 -22.078125 13.816406 -22.050781 13.578125 -22 L 13.375 -22 C 8.84375 -21.53125 5.207031 -19.8125 2.46875 -16.84375 C 1.570312 -15.851562 1.691406 -14.695312 2.828125 -13.375 C 3.441406 -12.664062 4.007812 -11.882812 4.53125 -11.03125 C 5.050781 -10.132812 5.546875 -9.390625 6.015625 -8.796875 C 6.484375 -8.210938 7.097656 -7.921875 7.859375 -7.921875 C 8.273438 -7.921875 8.789062 -8.0625 9.40625 -8.34375 C 11.195312 -9.144531 13.023438 -9.851562 14.890625 -10.46875 C 16.753906 -11.082031 18.507812 -11.625 20.15625 -12.09375 C 20.445312 -12.1875 20.882812 -12.304688 21.46875 -12.453125 C 22.0625 -12.597656 22.617188 -12.671875 23.140625 -12.671875 C 23.421875 -12.671875 23.628906 -12.644531 23.765625 -12.59375 C 23.910156 -12.539062 24.007812 -12.515625 24.0625 -12.515625 Z M -3.109375 8.625 C 0.660156 6.644531 2.972656 2.96875 3.828125 -2.40625 L 3.390625 -2.625 C 3.347656 -2.425781 3.085938 -2.195312 2.609375 -1.9375 C 2.140625 -1.6875 1.71875 -1.46875 1.34375 -1.28125 C 0.875 -1.039062 0.59375 -0.875 0.5 -0.78125 C -0.632812 0.0195312 -1.648438 0.800781 -2.546875 1.5625 L -3.046875 1.984375 C -3.796875 2.640625 -4.582031 3.40625 -5.40625 4.28125 C -6.238281 5.15625 -6.703125 6.085938 -6.796875 7.078125 C -6.835938 7.691406 -6.695312 8.1875 -6.375 8.5625 C -6.039062 8.894531 -5.539062 9.0625 -4.875 9.0625 C -4.5 9.0625 -4.15625 9.007812 -3.84375 8.90625 C -3.539062 8.8125 -3.296875 8.71875 -3.109375 8.625 Z M -3.109375 8.625 "/></g></g></g><g fill="#000000" fill-opacity="1"><g transform="translate(96.807438, 68.820098)"><g><path d="M 43.296875 -10.828125 C 43.628906 -10.160156 43.488281 -9.398438 42.875 -8.546875 C 42.257812 -7.703125 41.71875 -7 41.25 -6.4375 C 40.96875 -6.15625 40.78125 -5.941406 40.6875 -5.796875 C 35.875 0.378906 30.566406 4.484375 24.765625 6.515625 C 24.335938 6.648438 23.882812 6.785156 23.40625 6.921875 C 22.9375 7.066406 22.445312 7.140625 21.9375 7.140625 C 20.894531 7.140625 19.925781 6.765625 19.03125 6.015625 C 18.082031 5.253906 17.523438 4.390625 17.359375 3.421875 C 17.203125 2.460938 17.125 1.441406 17.125 0.359375 C 17.164062 -1.910156 17.578125 -4 18.359375 -5.90625 C 19.140625 -7.8125 19.976562 -9.6875 20.875 -11.53125 L 21.4375 -12.734375 C 21.582031 -12.972656 21.722656 -13.328125 21.859375 -13.796875 C 22.003906 -14.265625 21.910156 -14.640625 21.578125 -14.921875 C 21.335938 -15.117188 21.054688 -15.21875 20.734375 -15.21875 C 20.023438 -15.21875 19.1875 -14.847656 18.21875 -14.109375 C 17.25 -13.378906 16.390625 -12.660156 15.640625 -11.953125 L 15.5 -11.8125 C 14.925781 -11.34375 14.390625 -10.835938 13.890625 -10.296875 C 13.398438 -9.753906 12.921875 -9.222656 12.453125 -8.703125 C 12.171875 -8.421875 11.875 -8.125 11.5625 -7.8125 C 11.257812 -7.507812 10.96875 -7.191406 10.6875 -6.859375 L 9.203125 -5.375 C 8.304688 -4.476562 7.410156 -3.570312 6.515625 -2.65625 C 5.617188 -1.738281 4.695312 -0.828125 3.75 0.078125 C 3.46875 0.359375 3.160156 0.601562 2.828125 0.8125 C 2.492188 1.019531 2.117188 1.125 1.703125 1.125 C 1.273438 1.125 0.847656 0.984375 0.421875 0.703125 C -0.285156 0.285156 -0.6875 -0.21875 -0.78125 -0.8125 C -0.875 -1.40625 -0.894531 -2.03125 -0.84375 -2.6875 C -0.707031 -5.5625 -0.179688 -8.296875 0.734375 -10.890625 C 1.660156 -13.484375 2.617188 -16.03125 3.609375 -18.53125 C 3.984375 -19.382812 4.675781 -20.773438 5.6875 -22.703125 C 6.707031 -24.640625 7.910156 -26.867188 9.296875 -29.390625 C 10.691406 -31.921875 12.164062 -34.550781 13.71875 -37.28125 C 15.28125 -40.019531 16.78125 -42.640625 18.21875 -45.140625 C 19.65625 -47.640625 20.90625 -49.832031 21.96875 -51.71875 C 23.03125 -53.601562 23.796875 -54.972656 24.265625 -55.828125 C 24.972656 -57.046875 25.703125 -58.253906 26.453125 -59.453125 C 27.210938 -60.660156 28.015625 -61.832031 28.859375 -62.96875 C 29.148438 -63.34375 29.550781 -63.90625 30.0625 -64.65625 C 30.582031 -65.414062 31.160156 -66.101562 31.796875 -66.71875 C 32.429688 -67.332031 33.054688 -67.59375 33.671875 -67.5 C 34.335938 -67.445312 34.65625 -67.148438 34.625 -66.609375 C 34.601562 -66.066406 34.453125 -65.46875 34.171875 -64.8125 C 33.796875 -64.007812 33.347656 -63.226562 32.828125 -62.46875 C 32.304688 -61.71875 31.976562 -61.25 31.84375 -61.0625 C 30.851562 -59.78125 29.601562 -57.925781 28.09375 -55.5 C 26.582031 -53.070312 24.929688 -50.300781 23.140625 -47.1875 C 21.347656 -44.070312 19.519531 -40.835938 17.65625 -37.484375 C 15.789062 -34.140625 14.03125 -30.875 12.375 -27.6875 C 10.726562 -24.507812 9.28125 -21.625 8.03125 -19.03125 C 6.78125 -16.4375 5.894531 -14.363281 5.375 -12.8125 C 4.8125 -11.207031 4.175781 -9.601562 3.46875 -8 C 2.757812 -6.394531 2.238281 -4.742188 1.90625 -3.046875 C 1.8125 -2.429688 1.882812 -2.003906 2.125 -1.765625 C 2.257812 -1.628906 2.445312 -1.5625 2.6875 -1.5625 C 2.925781 -1.5625 3.234375 -1.628906 3.609375 -1.765625 C 4.171875 -2.046875 4.664062 -2.398438 5.09375 -2.828125 C 5.519531 -3.253906 5.921875 -3.703125 6.296875 -4.171875 C 6.441406 -4.359375 6.59375 -4.546875 6.75 -4.734375 C 6.914062 -4.921875 7.09375 -5.113281 7.28125 -5.3125 C 7.613281 -5.632812 7.941406 -5.972656 8.265625 -6.328125 C 8.597656 -6.679688 8.929688 -7.046875 9.265625 -7.421875 C 9.640625 -7.804688 10.023438 -8.207031 10.421875 -8.625 C 10.828125 -9.050781 11.222656 -9.453125 11.609375 -9.828125 L 11.8125 -10.046875 C 13.039062 -11.273438 14.3125 -12.488281 15.625 -13.6875 C 16.945312 -14.894531 18.363281 -15.96875 19.875 -16.90625 C 20.164062 -17.09375 20.484375 -17.289062 20.828125 -17.5 C 21.179688 -17.71875 21.570312 -17.828125 22 -17.828125 C 22.46875 -17.828125 22.914062 -17.660156 23.34375 -17.328125 C 24.519531 -16.484375 24.828125 -15.210938 24.265625 -13.515625 C 23.835938 -12.097656 23.390625 -10.71875 22.921875 -9.375 C 22.453125 -8.03125 21.984375 -6.722656 21.515625 -5.453125 L 21.15625 -4.453125 C 20.78125 -3.421875 20.414062 -2.359375 20.0625 -1.265625 C 19.707031 -0.179688 19.457031 0.945312 19.3125 2.125 C 19.21875 3.445312 19.453125 4.410156 20.015625 5.015625 C 20.585938 5.585938 21.414062 5.875 22.5 5.875 C 22.738281 5.875 23 5.875 23.28125 5.875 C 24.5 5.726562 25.613281 5.429688 26.625 4.984375 C 27.644531 4.535156 28.554688 4.050781 29.359375 3.53125 C 32.003906 1.882812 34.382812 -0.140625 36.5 -2.546875 C 37.113281 -3.203125 37.679688 -3.90625 38.203125 -4.65625 C 38.722656 -5.414062 39.21875 -6.175781 39.6875 -6.9375 C 40.019531 -7.457031 40.347656 -7.972656 40.671875 -8.484375 C 41.003906 -9.003906 41.335938 -9.523438 41.671875 -10.046875 C 41.816406 -10.191406 42.015625 -10.378906 42.265625 -10.609375 C 42.523438 -10.847656 42.773438 -10.96875 43.015625 -10.96875 C 43.109375 -10.96875 43.203125 -10.921875 43.296875 -10.828125 Z M 43.296875 -10.828125 "/></g></g></g><g fill="#000000" fill-opacity="1"><g transform="translate(138.681919, 68.820098)"><g><path d="M 24.625 -11.25 C 24.757812 -11.15625 24.828125 -10.941406 24.828125 -10.609375 C 24.828125 -10.285156 24.625 -9.976562 24.21875 -9.6875 C 23.820312 -9.40625 23.507812 -9.171875 23.28125 -8.984375 C 22.476562 -8.273438 21.648438 -7.585938 20.796875 -6.921875 C 19.953125 -6.265625 19.101562 -5.628906 18.25 -5.015625 C 16.457031 -3.742188 14.554688 -2.613281 12.546875 -1.625 C 10.546875 -0.632812 8.414062 0.164062 6.15625 0.78125 C 5.207031 1.007812 4.210938 1.125 3.171875 1.125 C 2.140625 1.125 1.109375 0.65625 0.078125 -0.28125 C -0.960938 -1.175781 -1.539062 -2.128906 -1.65625 -3.140625 C -1.78125 -4.160156 -1.703125 -5.140625 -1.421875 -6.078125 C -0.566406 -9.285156 0.632812 -12.28125 2.1875 -15.0625 C 3.75 -17.851562 5.613281 -20.425781 7.78125 -22.78125 C 8.019531 -23.113281 8.316406 -23.421875 8.671875 -23.703125 C 9.023438 -23.984375 9.507812 -23.890625 10.125 -23.421875 C 10.78125 -22.898438 10.988281 -22.4375 10.75 -22.03125 C 10.519531 -21.632812 10.3125 -21.269531 10.125 -20.9375 C 8.613281 -18.53125 7.148438 -16.125 5.734375 -13.71875 C 4.316406 -11.320312 3.066406 -8.800781 1.984375 -6.15625 C 1.796875 -5.6875 1.554688 -5.191406 1.265625 -4.671875 C 0.984375 -4.148438 0.84375 -3.617188 0.84375 -3.078125 C 0.84375 -2.535156 1.101562 -2.003906 1.625 -1.484375 C 2.476562 -0.585938 3.421875 -0.207031 4.453125 -0.34375 C 5.492188 -0.488281 6.4375 -0.65625 7.28125 -0.84375 C 9.125 -1.269531 10.820312 -1.90625 12.375 -2.75 C 13.9375 -3.601562 15.425781 -4.550781 16.84375 -5.59375 C 17.03125 -5.726562 17.5 -6.125 18.25 -6.78125 C 19.007812 -7.445312 19.835938 -8.15625 20.734375 -8.90625 C 21.628906 -9.664062 22.453125 -10.28125 23.203125 -10.75 C 23.960938 -11.226562 24.4375 -11.394531 24.625 -11.25 Z M 13.234375 -26.75 C 12.148438 -26.65625 11.460938 -27.148438 11.171875 -28.234375 C 10.941406 -29.171875 11.035156 -29.835938 11.453125 -30.234375 C 11.878906 -30.640625 12.492188 -30.867188 13.296875 -30.921875 C 13.867188 -30.960938 14.363281 -30.84375 14.78125 -30.5625 C 15.207031 -30.28125 15.515625 -29.785156 15.703125 -29.078125 C 15.753906 -28.273438 15.539062 -27.707031 15.0625 -27.375 C 14.59375 -27.050781 13.984375 -26.84375 13.234375 -26.75 Z M 13.234375 -26.75 "/></g></g></g><g fill="#000000" fill-opacity="1"><g transform="translate(162.024107, 68.820098)"><g><path d="M 36.359375 -13.796875 C 36.597656 -13.742188 36.742188 -13.695312 36.796875 -13.65625 C 36.929688 -13.414062 36.832031 -13.109375 36.5 -12.734375 C 31.644531 -7.640625 25.726562 -3.160156 18.75 0.703125 L 18.25 0.921875 C 18.019531 1.109375 17.75 1.269531 17.4375 1.40625 C 17.132812 1.550781 16.816406 1.625 16.484375 1.625 C 16.015625 1.625 15.519531 1.410156 15 0.984375 C 14.382812 0.421875 14.085938 -0.101562 14.109375 -0.59375 C 14.140625 -1.09375 14.25 -1.625 14.4375 -2.1875 C 14.476562 -2.28125 14.519531 -2.375 14.5625 -2.46875 C 14.613281 -2.570312 14.640625 -2.671875 14.640625 -2.765625 C 15.066406 -4.265625 15.597656 -5.710938 16.234375 -7.109375 C 16.867188 -8.503906 17.519531 -9.835938 18.1875 -11.109375 C 18.1875 -11.109375 18.335938 -11.390625 18.640625 -11.953125 C 18.953125 -12.523438 19.28125 -13.128906 19.625 -13.765625 C 19.976562 -14.398438 20.226562 -14.832031 20.375 -15.0625 C 20.375 -15.113281 20.46875 -15.257812 20.65625 -15.5 C 21.082031 -16.101562 21.445312 -16.734375 21.75 -17.390625 C 22.0625 -18.054688 22.144531 -18.582031 22 -18.96875 C 21.90625 -19.195312 21.765625 -19.359375 21.578125 -19.453125 C 21.429688 -19.503906 21.3125 -19.53125 21.21875 -19.53125 C 20.75 -19.53125 20.226562 -19.269531 19.65625 -18.75 C 19.09375 -18.226562 18.8125 -17.96875 18.8125 -17.96875 C 18.488281 -17.59375 18.160156 -17.117188 17.828125 -16.546875 C 17.492188 -15.984375 17.304688 -15.347656 17.265625 -14.640625 L 17.265625 -14.359375 C 17.265625 -14.171875 17.25 -13.957031 17.21875 -13.71875 C 17.195312 -13.488281 17.117188 -13.375 16.984375 -13.375 C 16.929688 -13.375 16.820312 -13.40625 16.65625 -13.46875 C 16.488281 -13.539062 16.265625 -13.722656 15.984375 -14.015625 L 15.78125 -14.21875 L 15.359375 -13.71875 C 15.210938 -13.625 15.078125 -13.503906 14.953125 -13.359375 C 14.835938 -13.222656 14.734375 -13.109375 14.640625 -13.015625 C 14.078125 -12.398438 13.546875 -11.796875 13.046875 -11.203125 C 12.554688 -10.617188 12.050781 -10.046875 11.53125 -9.484375 C 10.394531 -8.160156 9.238281 -6.847656 8.0625 -5.546875 C 6.882812 -4.253906 5.613281 -3.039062 4.25 -1.90625 L 3.75 -1.484375 C 3.320312 -1.109375 2.875 -0.753906 2.40625 -0.421875 C 1.9375 -0.0859375 1.414062 0.078125 0.84375 0.078125 C 0.375 0.078125 -0.117188 -0.0859375 -0.640625 -0.421875 C -1.628906 -1.128906 -2.097656 -1.953125 -2.046875 -2.890625 C -2.003906 -3.835938 -1.863281 -4.757812 -1.625 -5.65625 L -1.5625 -6.078125 C -0.425781 -10.609375 1.601562 -14.503906 4.53125 -17.765625 C 6.550781 -20.023438 8.957031 -21.15625 11.75 -21.15625 L 11.953125 -21.15625 C 12.566406 -21.15625 13.15625 -21.117188 13.71875 -21.046875 C 14.289062 -20.972656 14.71875 -20.75 15 -20.375 C 15.84375 -19.144531 16.644531 -18.53125 17.40625 -18.53125 C 17.78125 -18.53125 18.109375 -18.648438 18.390625 -18.890625 C 18.671875 -19.128906 18.976562 -19.390625 19.3125 -19.671875 L 19.53125 -19.875 C 19.945312 -20.300781 20.414062 -20.632812 20.9375 -20.875 C 21.175781 -20.96875 21.398438 -21.046875 21.609375 -21.109375 C 21.828125 -21.179688 22.03125 -21.21875 22.21875 -21.21875 C 22.539062 -21.21875 22.867188 -21.101562 23.203125 -20.875 C 23.578125 -20.539062 23.753906 -20.207031 23.734375 -19.875 C 23.710938 -19.550781 23.609375 -19.195312 23.421875 -18.8125 C 22.617188 -17.070312 21.816406 -15.363281 21.015625 -13.6875 C 20.210938 -12.007812 19.410156 -10.347656 18.609375 -8.703125 L 17.328125 -6.015625 C 17.046875 -5.492188 16.796875 -4.945312 16.578125 -4.375 C 16.367188 -3.8125 16.171875 -3.273438 15.984375 -2.765625 L 15.640625 -1.703125 C 15.453125 -1.222656 15.425781 -0.867188 15.5625 -0.640625 C 15.65625 -0.492188 15.796875 -0.375 15.984375 -0.28125 C 16.128906 -0.238281 16.296875 -0.21875 16.484375 -0.21875 C 16.953125 -0.21875 17.492188 -0.359375 18.109375 -0.640625 C 18.722656 -0.921875 19.148438 -1.132812 19.390625 -1.28125 C 20.898438 -2.3125 22.382812 -3.359375 23.84375 -4.421875 C 25.300781 -5.484375 26.71875 -6.53125 28.09375 -7.5625 C 28.5625 -7.894531 29.003906 -8.238281 29.421875 -8.59375 C 29.847656 -8.945312 30.300781 -9.289062 30.78125 -9.625 C 31.0625 -9.851562 31.351562 -10.097656 31.65625 -10.359375 C 31.96875 -10.617188 32.285156 -10.867188 32.609375 -11.109375 C 32.753906 -11.242188 32.894531 -11.367188 33.03125 -11.484375 C 33.175781 -11.609375 33.34375 -11.71875 33.53125 -11.8125 C 33.769531 -12.050781 34.03125 -12.273438 34.3125 -12.484375 C 34.59375 -12.703125 34.875 -12.925781 35.15625 -13.15625 L 35.453125 -13.296875 C 35.585938 -13.390625 35.738281 -13.492188 35.90625 -13.609375 C 36.070312 -13.734375 36.222656 -13.796875 36.359375 -13.796875 Z M 15.703125 -16.484375 C 16.171875 -17.003906 16.148438 -17.617188 15.640625 -18.328125 C 15.023438 -19.128906 14.289062 -19.53125 13.4375 -19.53125 C 13.34375 -19.53125 13.25 -19.53125 13.15625 -19.53125 C 11.976562 -19.289062 10.941406 -18.910156 10.046875 -18.390625 C 7.972656 -17.171875 6.296875 -15.640625 5.015625 -13.796875 C 3.742188 -11.953125 2.640625 -10.132812 1.703125 -8.34375 C 1.609375 -8.15625 1.5 -7.96875 1.375 -7.78125 C 1.257812 -7.59375 1.15625 -7.40625 1.0625 -7.21875 C 0.78125 -6.789062 0.519531 -6.34375 0.28125 -5.875 C 0.0390625 -5.40625 -0.144531 -4.882812 -0.28125 -4.3125 C -0.332031 -4.082031 -0.359375 -3.660156 -0.359375 -3.046875 C -0.359375 -2.429688 -0.191406 -1.984375 0.140625 -1.703125 C 0.285156 -1.515625 0.472656 -1.421875 0.703125 -1.421875 C 0.890625 -1.421875 1.128906 -1.488281 1.421875 -1.625 C 3.441406 -2.894531 5.242188 -4.398438 6.828125 -6.140625 C 8.410156 -7.890625 9.929688 -9.664062 11.390625 -11.46875 C 12.097656 -12.3125 12.804688 -13.15625 13.515625 -14 C 14.222656 -14.851562 14.953125 -15.679688 15.703125 -16.484375 Z M 15.703125 -16.484375 "/></g></g></g></g></g></g></g></g></svg>